<svg width="19" height="18" viewBox="0 0 19 18" fill="none" xmlns="http://www.w3.org/2000/svg">
<path d="M17.8084 14.2751C17.8084 14.5751 17.7417 14.8834 17.6 15.1834C17.4584 15.4834 17.275 15.7667 17.0334 16.0334C16.625 16.4834 16.175 16.8084 15.6667 17.0167C15.1667 17.2251 14.625 17.3334 14.0417 17.3334C13.1917 17.3334 12.2834 17.1334 11.325 16.7251C10.3667 16.3167 9.40835 15.7667 8.45835 15.0751C7.50002 14.3751 6.59169 13.6001 5.72502 12.7417C4.86669 11.8751 4.09169 10.9667 3.40002 10.0167C2.71669 9.06675 2.16669 8.11675 1.76669 7.17508C1.36669 6.22508 1.16669 5.31675 1.16669 4.45008C1.16669 3.88341 1.26669 3.34175 1.46669 2.84175C1.66669 2.33341 1.98335 1.86675 2.42502 1.45008C2.95835 0.925081 3.54169 0.666748 4.15835 0.666748C4.39169 0.666748 4.62502 0.716748 4.83335 0.816748C5.05002 0.916748 5.24169 1.06675 5.39169 1.28341L7.32502 4.00842C7.47502 4.21675 7.58335 4.40841 7.65835 4.59175C7.73335 4.76675 7.77502 4.94175 7.77502 5.10008C7.77502 5.30008 7.71669 5.50008 7.60002 5.69175C7.49169 5.88341 7.33335 6.08341 7.13335 6.28341L6.50002 6.94175C6.40835 7.03341 6.36669 7.14175 6.36669 7.27508C6.36669 7.34175 6.37502 7.40008 6.39169 7.46675C6.41669 7.53341 6.44169 7.58341 6.45835 7.63341C6.60835 7.90841 6.86669 8.26675 7.23335 8.70008C7.60835 9.13342 8.00835 9.57508 8.44169 10.0167C8.89169 10.4584 9.32502 10.8667 9.76669 11.2417C10.2 11.6084 10.5584 11.8584 10.8417 12.0084C10.8834 12.0251 10.9334 12.0501 10.9917 12.0751C11.0584 12.1001 11.125 12.1084 11.2 12.1084C11.3417 12.1084 11.45 12.0584 11.5417 11.9667L12.175 11.3417C12.3834 11.1334 12.5834 10.9751 12.775 10.8751C12.9667 10.7584 13.1584 10.7001 13.3667 10.7001C13.525 10.7001 13.6917 10.7334 13.875 10.8084C14.0584 10.8834 14.25 10.9917 14.4584 11.1334L17.2167 13.0917C17.4334 13.2417 17.5834 13.4167 17.675 13.6251C17.7584 13.8334 17.8084 14.0417 17.8084 14.2751Z" stroke="#8C8C8C" stroke-width="1.2" stroke-miterlimit="10"/>
<path d="M14.9167 6.50016C14.9167 6.00016 14.5251 5.2335 13.9417 4.6085C13.4084 4.0335 12.7001 3.5835 12.0001 3.5835" stroke="#8C8C8C" stroke-width="1.2" stroke-linecap="round" stroke-linejoin="round"/>
<path d="M17.8334 6.50008C17.8334 3.27508 15.2251 0.666748 12.0001 0.666748" stroke="#8C8C8C" stroke-width="1.2" stroke-linecap="round" stroke-linejoin="round"/>
</svg>
