<svg width="49" height="49" viewBox="0 0 49 49" fill="none" xmlns="http://www.w3.org/2000/svg">
<rect x="0.60083" y="0.0644531" width="48" height="48" rx="24" fill="#343538"/>
<path d="M26.2675 21.8145V24.2311H28.4342C28.6008 24.2311 28.6842 24.3978 28.6842 24.5645L28.3508 26.1478C28.3508 26.2311 28.1842 26.3145 28.1008 26.3145H26.2675V32.3978H23.7675V26.3978H22.3508C22.1842 26.3978 22.1008 26.3145 22.1008 26.1478V24.5645C22.1008 24.3978 22.1842 24.3145 22.3508 24.3145H23.7675V21.5645C23.7675 20.1478 24.8508 19.0645 26.2675 19.0645H28.5175C28.6842 19.0645 28.7675 19.1478 28.7675 19.3145V21.3145C28.7675 21.4811 28.6842 21.5645 28.5175 21.5645H26.5175C26.3508 21.5645 26.2675 21.6478 26.2675 21.8145Z" stroke="white" stroke-miterlimit="10" stroke-linecap="round"/>
<path d="M27.1008 32.3979H22.1008C17.9342 32.3979 16.2675 30.7312 16.2675 26.5645V21.5645C16.2675 17.3979 17.9342 15.7312 22.1008 15.7312H27.1008C31.2675 15.7312 32.9342 17.3979 32.9342 21.5645V26.5645C32.9342 30.7312 31.2675 32.3979 27.1008 32.3979Z" stroke="white" stroke-linecap="round" stroke-linejoin="round"/>
</svg>
