<svg width="314" height="326" viewBox="0 0 314 326" fill="none" xmlns="http://www.w3.org/2000/svg">
<g clip-path="url(#clip0_0_1487)">
<path d="M82.6601 291.207V184.111L69.0945 191.722V180.668L81.5749 173.42L85.0115 171.426L123.719 149.137V110.539L110.334 102.928V91.6931L120.825 97.8543L149.222 114.163L194.08 140.077L218.136 154.03L230.616 161.278V172.514L217.232 164.721V214.555H165.32V146.782L175.088 152.399V204.769H207.464V159.104L152.478 127.211L133.486 116.157V201.507H123.719V160.372L92.2466 178.494V291.207H82.6601Z" fill="#E8E8E8"/>
<path d="M0 326V316.215H249.789V24.4636L175.088 67.7732V117.063L165.32 111.445V73.3908L151.935 81.1829V69.9477L262.27 6.1612L272.941 0V11.2351L259.556 19.0272V184.111L301.52 208.394L314 215.642V226.877L300.615 219.085V326.181H0V326ZM259.556 316.396H291.029V213.467L259.556 195.346V316.396Z" fill="#E8E8E8"/>
</g>
<defs>
<clipPath id="clip0_0_1487">
<rect width="314" height="326" fill="white"/>
</clipPath>
</defs>
</svg>
