<svg width="64" height="65" viewBox="0 0 64 65" fill="none" xmlns="http://www.w3.org/2000/svg">
<g clip-path="url(#clip0_0_2929)">
<path d="M12.9393 16.9875L11.6173 14.8058C11.2277 14.8058 10.7554 14.8161 10.2866 14.8058C9.59166 14.7972 8.91996 14.5543 8.38032 14.1164C7.84068 13.6785 7.46472 13.0713 7.31335 12.3931C7.15321 11.7405 7.21766 11.0529 7.49629 10.4413C7.77492 9.82979 8.25148 9.32991 8.8491 9.02236C9.22486 8.82418 9.29725 8.6036 9.30069 8.22619C9.30931 7.00265 9.23347 5.76187 9.4179 4.56245C9.60837 3.39525 10.2067 2.3334 11.1064 1.56571C12.0062 0.798007 13.1491 0.374208 14.332 0.369659C16.4612 0.33864 18.5899 0.33864 20.718 0.369659C22.056 0.385651 23.335 0.922897 24.283 1.86714C25.2309 2.81138 25.7731 4.08812 25.7941 5.42583C25.8148 6.3926 25.7786 7.3611 25.8165 8.32787C25.8267 8.45125 25.8626 8.57112 25.922 8.67976C25.9814 8.7884 26.0629 8.88339 26.1612 8.9586C27.5125 9.76166 28.121 11.08 27.747 12.4948C27.5827 13.1809 27.1813 13.7869 26.6136 14.2059C26.046 14.6249 25.3486 14.8301 24.6444 14.7851C23.7464 14.7454 23.1673 14.9367 22.8622 15.8466C22.7243 16.2533 22.3744 16.5894 22.1107 16.972C26.1181 18.1783 27.9952 20.908 27.8814 25.1283C28.1727 25.1283 28.4416 25.1283 28.7122 25.1283C29.5499 25.1439 29.9187 25.5126 29.9187 26.3622C29.9187 29.3711 29.9187 32.38 29.9187 35.3889V37.4741H34.0554V26.8172C34.0554 25.3506 34.2537 25.1507 35.7205 25.1266C35.8256 25.1266 35.9307 25.1146 36.0979 25.1059C35.9652 20.9442 37.8422 18.1903 41.8117 16.9875C41.4463 16.3429 41.0947 15.6864 40.6983 15.0574C40.6321 14.9854 40.5524 14.9272 40.4636 14.886C40.3749 14.8449 40.2789 14.8218 40.1812 14.8178C39.6279 14.761 39.0557 14.8178 38.5162 14.7041C37.9006 14.573 37.341 14.2538 36.9148 13.7906C36.4887 13.3275 36.217 12.7434 36.1376 12.1191C36.0518 11.5078 36.1557 10.8849 36.4352 10.3345C36.7148 9.78407 37.1566 9.33269 37.7009 9.04132C38.0956 8.83452 38.1852 8.60704 38.1887 8.20207C38.1887 6.97852 38.1249 5.73774 38.3093 4.53833C38.6765 2.15672 40.7759 0.4024 43.1838 0.364487C45.3555 0.327723 47.5267 0.327723 49.6973 0.364487C51.0132 0.40045 52.2649 0.940996 53.1931 1.8742C54.1213 2.8074 54.6551 4.06177 54.6838 5.37758C54.7079 6.36503 54.6683 7.35593 54.7097 8.34338C54.7244 8.47021 54.7666 8.59231 54.8333 8.70122C54.8999 8.81014 54.9895 8.90325 55.0957 8.97411C56.4057 9.74787 57.0228 11.0748 56.6677 12.4603C56.3023 13.8872 55.1164 14.7937 53.5893 14.8127C53.1601 14.8127 52.7275 14.8127 52.3828 14.8127L51.0625 16.9806C55.0268 18.1714 56.9124 20.9131 56.7849 25.1266C57.0745 25.1266 57.3261 25.1266 57.5778 25.1266C58.462 25.1387 58.8308 25.4989 58.8326 26.3829C58.8326 29.8226 58.8326 33.2623 58.8326 36.702V37.5085H59.9202C60.9078 37.5085 61.8972 37.4965 62.8865 37.5085C63.576 37.5223 63.981 37.9084 63.9862 38.5908C64.0012 40.6105 64.0012 42.6308 63.9862 44.6516C63.9862 45.3651 63.5725 45.7442 62.84 45.7563C61.8765 45.7701 60.9113 45.7563 59.8633 45.7563V62.8583C59.8633 64.0336 59.5599 64.33 58.3672 64.3317C56.5608 64.3317 54.755 64.3317 52.9498 64.3317C51.9467 64.3317 51.6106 63.9871 51.6071 62.9669C51.6071 62.069 51.6071 61.1712 51.6071 60.2406H12.3877C12.3877 61.1161 12.3877 62.0087 12.3877 62.9014C12.3877 64.006 12.0671 64.3317 10.9795 64.3317C9.19498 64.3317 7.41045 64.3317 5.62592 64.3317C4.43145 64.3317 4.12981 64.0353 4.12981 62.86V45.7666C3.17837 45.7666 2.26313 45.7666 1.34788 45.7666C0.343007 45.7666 0.00344787 45.4219 0.00172424 44.4052C0.00172424 42.5337 0.00172424 40.6633 0.00172424 38.7941C0.00172424 37.8722 0.365413 37.5172 1.2979 37.5137C2.56131 37.5137 3.82473 37.5137 5.16054 37.5137V26.7758C5.16054 25.3627 5.37944 25.1421 6.80144 25.1266C6.9083 25.1266 7.01517 25.1266 7.20304 25.1266C7.06688 20.9683 8.92149 18.2007 12.9393 16.9875ZM51.5813 45.8114H12.436V58.1158H51.5813V45.8114ZM61.9041 39.6179H2.11662V43.6711H61.9041V39.6179ZM27.8245 37.4827V27.2411H7.26509V37.4827H27.8245ZM56.7332 27.2411H36.1772V37.4775H56.7332V27.2411ZM6.23092 45.8011V62.2534H10.278V45.7942L6.23092 45.8011ZM57.7674 45.82H53.7168V62.2414H57.7674V45.82ZM23.7395 8.60704C23.7395 7.51619 23.755 6.50806 23.7395 5.5051C23.7407 5.10008 23.6616 4.69883 23.507 4.32446C23.3524 3.9501 23.1253 3.61001 22.8387 3.32377C22.5521 3.03754 22.2117 2.81082 21.8371 2.65666C21.4625 2.50251 21.061 2.42396 20.656 2.42556C18.5727 2.40488 16.4894 2.40488 14.4061 2.42556C12.9117 2.44107 11.6207 3.47505 11.4345 4.95709C11.2949 6.06517 11.407 7.19738 11.407 8.33648C12.5239 7.99182 13.303 6.97335 13.4133 5.74119C13.4857 4.91228 13.8097 4.50903 14.4164 4.48663C15.0231 4.46423 15.3179 4.84335 15.5075 5.6016C15.5851 5.97749 15.768 6.32355 16.0349 6.5994C16.5658 7.06645 17.1434 7.47762 17.7585 7.82639C19.6114 8.89311 21.6591 8.58636 23.7395 8.60704ZM40.2639 8.44505C41.5911 7.81777 42.2513 6.89408 42.3219 5.54301C42.3547 4.94502 42.6667 4.57968 43.263 4.50041C43.3919 4.48262 43.523 4.49099 43.6485 4.52503C43.774 4.55907 43.8914 4.61808 43.9936 4.69852C44.0958 4.77897 44.1807 4.87919 44.2432 4.99321C44.3057 5.10722 44.3446 5.23267 44.3576 5.36206C44.4299 6.15134 44.8867 6.64937 45.4538 7.09915C47.598 8.79833 50.0955 8.71561 52.6361 8.56051C52.6361 7.46105 52.6672 6.40811 52.6361 5.35862C52.5792 3.79386 51.3055 2.47381 49.7456 2.43934C47.5623 2.38994 45.3716 2.38994 43.1734 2.43934C42.4235 2.47061 41.7121 2.77947 41.1772 3.30592C40.6424 3.83237 40.3224 4.53881 40.2794 5.28796C40.2226 6.29437 40.2639 7.30423 40.2639 8.44505ZM12.9289 19.2364C10.4469 19.9343 8.90081 22.5106 9.36619 25.0818H11.3897V23.1052H13.4391V25.0818H21.7005V23.1052H23.7688V25.0887H25.7424C26.0871 22.309 24.5462 19.7964 22.1538 19.2536C21.6591 20.2376 21.1644 21.2337 20.6577 22.2246C20.1509 23.2155 19.4511 23.3499 18.6876 22.5572C18.3187 22.178 18.0205 21.7317 17.6362 21.2492C17.088 21.8351 16.7485 22.2229 16.3831 22.583C15.6264 23.3292 14.9283 23.2086 14.4423 22.2573C13.9407 21.2664 13.446 20.2686 12.9289 19.2364ZM51.0676 19.2364C50.5505 20.2704 50.0335 21.3319 49.4871 22.3728C49.0648 23.1758 48.3477 23.2896 47.6979 22.6606C47.286 22.2642 46.9171 21.823 46.4173 21.2819C46.1484 21.6266 45.9881 21.8575 45.8037 22.066C45.6167 22.2734 45.4193 22.4713 45.2125 22.6589C44.542 23.2792 43.8525 23.1758 43.413 22.39C43.2992 22.1832 43.201 21.9678 43.0941 21.7576C42.6649 20.8959 42.2323 20.0463 41.8117 19.2036C39.2142 20.1239 37.644 22.8105 38.2904 25.0904H40.2743V23.1155H42.3426V25.0835H50.604V23.1052H52.6534V25.0835H54.6752C54.8372 22.0919 53.4859 19.8912 51.0676 19.2415V19.2364ZM14.8163 8.35199C13.5701 9.11369 13.2306 10.2132 13.4098 11.5436C13.4702 11.9864 13.3995 12.4448 13.4271 12.8946C13.5305 14.5318 14.313 15.7536 15.7884 16.4601C17.2639 17.1667 18.6772 17.003 19.9855 16.0586C21.8814 14.6955 21.7642 12.7102 21.6315 10.6871C19.146 10.7996 16.7104 9.96508 14.8163 8.35199ZM43.6974 8.33821C42.4529 9.1361 42.1237 10.2614 42.3185 11.6125C42.3771 12.033 42.3082 12.4741 42.3357 12.8981C42.4391 14.5352 43.2217 15.757 44.6971 16.4636C46.1725 17.1701 47.5876 17.0047 48.8941 16.0586C50.7815 14.6937 50.6712 12.7102 50.5385 10.6888C48.0426 10.8004 45.5974 9.9602 43.6974 8.33821ZM11.326 10.6802C10.5951 10.7233 9.80572 10.4441 9.44376 11.2523C9.38141 11.4243 9.35683 11.6076 9.37171 11.7899C9.38658 11.9722 9.44055 12.1491 9.52994 12.3087C9.97291 12.9756 10.6882 12.7154 11.326 12.712V10.6802ZM23.7654 12.7309C24.4841 12.7068 25.258 12.9773 25.6407 12.1932C25.7077 12.0228 25.7372 11.8398 25.7271 11.6569C25.717 11.474 25.6675 11.2955 25.5821 11.1334C25.1529 10.4441 24.429 10.7043 23.7654 10.7095V12.7309ZM40.2243 12.7309V10.6974C39.5538 10.7129 38.8144 10.4475 38.4041 11.1506C38.3233 11.3251 38.2814 11.515 38.2814 11.7073C38.2814 11.8995 38.3233 12.0895 38.4041 12.2639C38.8075 12.9739 39.5469 12.7102 40.2243 12.7275V12.7309ZM52.6689 12.7568C53.3928 12.6913 54.184 12.986 54.5511 12.1794C54.6141 12.0076 54.6396 11.8243 54.6259 11.6418C54.6122 11.4593 54.5597 11.2819 54.4718 11.1213C54.0305 10.451 53.3152 10.7077 52.6689 10.7164V12.7568ZM15.0938 18.9606L15.7557 20.2411L17.0139 18.9606H15.0938ZM18.2515 18.9779L19.3132 20.3169C19.558 19.8257 19.7545 19.4311 19.982 18.9779H18.2515ZM44.6557 20.2738L45.833 18.9882H44.0232L44.6557 20.2738ZM47.1498 18.9693L48.2219 20.2997C48.4615 19.8137 48.6563 19.419 48.8803 18.9693H47.1498Z" fill="#C79A53"/>
<path d="M17.5776 35.444C16.9619 35.4515 16.358 35.2758 15.8426 34.9391C15.3272 34.6024 14.9236 34.12 14.6833 33.5532C14.4429 32.9865 14.3767 32.3611 14.4929 31.7567C14.6091 31.1522 14.9026 30.5959 15.336 30.1587C15.7694 29.7215 16.3231 29.4231 16.9266 29.3015C17.5302 29.1799 18.1562 29.2405 18.7252 29.4758C19.2941 29.711 19.7802 30.1101 20.1216 30.6224C20.463 31.1346 20.6442 31.7369 20.6422 32.3524C20.6395 33.1668 20.3166 33.9474 19.7433 34.5259C19.1699 35.1043 18.392 35.4341 17.5776 35.444ZM17.5172 33.3761C17.7885 33.3799 18.0506 33.2781 18.2481 33.0922C18.4456 32.9063 18.563 32.6509 18.5755 32.38C18.583 32.1751 18.5293 31.9726 18.4214 31.7982C18.3135 31.6239 18.1561 31.4855 17.9694 31.4008C17.7826 31.3161 17.5749 31.2888 17.3726 31.3224C17.1703 31.356 16.9825 31.4489 16.8332 31.5895C16.6838 31.73 16.5797 31.9118 16.5339 32.1117C16.4882 32.3116 16.5029 32.5205 16.5762 32.712C16.6495 32.9035 16.7781 33.0689 16.9457 33.1871C17.1133 33.3054 17.3122 33.3711 17.5172 33.3761Z" fill="#C79A53"/>
<path d="M46.4776 29.2573C47.0933 29.2615 47.6938 29.4489 48.2027 29.7954C48.7116 30.142 49.1058 30.6321 49.3352 31.2033C49.5647 31.7746 49.6189 32.4012 49.491 33.0034C49.3631 33.6056 49.0589 34.1561 48.6171 34.5849C48.1754 35.0136 47.6159 35.3013 47.0101 35.4112C46.4043 35.5212 45.7795 35.4484 45.2152 35.2021C44.6508 34.9559 44.1726 34.5474 43.8412 34.0285C43.5098 33.5097 43.3404 32.904 43.3544 32.2886C43.3729 31.4746 43.7108 30.7005 44.2951 30.1334C44.8794 29.5663 45.6633 29.2516 46.4776 29.2573ZM46.4414 33.3777C46.6936 33.3502 46.9269 33.231 47.0969 33.0428C47.2669 32.8545 47.3617 32.6104 47.3634 32.3567C47.3651 32.1031 47.2736 31.8577 47.1061 31.6672C46.9386 31.4767 46.707 31.3544 46.4552 31.3235C46.3104 31.3058 46.1635 31.3188 46.0242 31.3618C45.8848 31.4049 45.7561 31.4769 45.6466 31.5731C45.537 31.6694 45.4491 31.7878 45.3885 31.9204C45.3279 32.0531 45.2961 32.197 45.2951 32.3429C45.2942 32.4887 45.324 32.6331 45.3828 32.7665C45.4416 32.9 45.528 33.0195 45.6362 33.1172C45.7445 33.215 45.8722 33.2887 46.0109 33.3336C46.1497 33.3785 46.2964 33.3935 46.4414 33.3777Z" fill="#C79A53"/>
</g>
<defs>
<clipPath id="clip0_0_2929">
<rect width="64" height="64" fill="white" transform="translate(0 0.342041)"/>
</clipPath>
</defs>
</svg>
