<svg width="64" height="65" viewBox="0 0 64 65" fill="none" xmlns="http://www.w3.org/2000/svg">
<g clip-path="url(#clip0_0_1510)">
<path d="M6.39465 62.1867C7.12496 62.1867 7.78401 62.1867 8.4787 62.1867C8.4787 52.9599 8.4787 43.7509 8.4787 34.5062C7.80183 34.5062 7.14277 34.5062 6.39465 34.5062C6.39465 34.7378 6.39465 34.9694 6.39465 35.2009C6.39465 37.6412 6.39465 40.0815 6.39465 42.5396C6.39465 43.5906 6.07402 44.0537 5.34371 44.0715C4.59559 44.0893 4.25716 43.6084 4.25716 42.5753C4.25716 39.9034 4.25716 37.2494 4.25716 34.4706C3.3131 34.4706 2.38685 34.4706 1.46061 34.4706C0.320614 34.4706 -0.0178223 34.1322 -0.0178223 33.01C-0.0178223 31.8522 -0.0178223 30.6944 -0.0178223 29.5366C-0.0178223 28.3966 0.302801 28.076 1.4428 28.0582C1.63873 28.0582 1.83467 28.0582 2.11967 28.0582C2.11967 27.7732 2.11967 27.5416 2.11967 27.31C2.11967 22.7322 2.11967 18.1545 2.11967 13.5767C2.11967 12.3654 2.42248 12.0626 3.66935 12.0626C4.84497 12.0626 6.02059 12.0626 7.19621 12.0626C8.14026 12.0626 8.51432 12.4367 8.51432 13.3985C8.51432 13.9507 8.51432 14.5029 8.53214 15.0729C8.53214 15.1085 8.56776 15.1442 8.60339 15.251C9.52963 15.251 10.4737 15.251 11.4177 15.251C12.4152 15.251 12.7715 15.6251 12.7715 16.6226C12.7715 20.1494 12.7715 23.6941 12.7715 27.221C12.7715 27.4703 12.7715 27.7019 12.7715 28.0047C15.2474 28.0047 17.7055 28.0047 20.1993 28.0047C20.1993 26.6332 20.1993 25.2438 20.1993 23.7832C19.5402 23.7832 18.8811 23.7832 18.2043 23.7832C16.2627 23.7654 14.8912 22.3938 14.8912 20.4523C14.8912 14.8592 14.8912 9.24825 14.8912 3.65515C14.9446 1.73141 16.3162 0.342041 18.2399 0.342041C27.4311 0.342041 36.6045 0.342041 45.7779 0.342041C47.6838 0.342041 49.0554 1.73141 49.0554 3.61952C49.0732 9.24825 49.0732 14.8592 49.0554 20.4879C49.0554 22.4294 47.666 23.7832 45.7245 23.801C45.0832 23.801 44.442 23.801 43.7295 23.801C43.7295 24.5313 43.7295 25.2438 43.7295 25.9385C43.7295 26.6153 43.7295 27.31 43.7295 28.0225C46.2232 28.0225 48.6457 28.0225 51.1929 28.0225C51.1929 27.7019 51.1929 27.3457 51.1929 27.0072C51.2285 25.1904 52.6001 23.8188 54.4169 23.801C55.076 23.801 55.7528 23.801 56.4119 23.801C58.3178 23.8188 59.6894 25.1725 59.7072 27.0785C59.7072 27.3813 59.7072 27.6841 59.7072 28.076C60.7047 28.076 61.6666 28.076 62.6106 28.076C63.6081 28.076 63.9644 28.4322 63.9822 29.4475C63.9822 30.6944 63.9822 31.9413 63.9822 33.1881C63.9822 34.0966 63.5903 34.4884 62.6819 34.4884C61.72 34.4884 60.776 34.4884 59.7072 34.4884C59.7072 34.7734 59.7072 35.0228 59.7072 35.2722C59.7072 44.4278 59.7072 53.5833 59.7072 62.7389C59.7072 64.057 59.4222 64.342 58.1041 64.342C56.9641 64.342 55.8419 64.342 54.7019 64.342C53.6688 64.342 53.2947 63.9858 53.2947 62.9349C53.2947 53.7437 53.2947 44.5346 53.2947 35.3434C53.2947 35.0762 53.2947 34.8269 53.2947 34.5241C53.081 34.5062 52.9029 34.4884 52.7247 34.4884C49.8391 34.4884 46.9535 34.4884 44.0501 34.4706C43.6404 34.4706 43.4445 34.5775 43.2307 34.9516C42.6251 36.0559 41.6454 36.6081 40.3985 36.6081C38.6707 36.6259 36.9429 36.6081 35.1795 36.6081C35.1795 37.3206 35.1795 37.9797 35.1795 38.7456C35.4111 38.7456 35.6426 38.7456 35.8742 38.7456C37.7445 38.7456 39.6148 38.7456 41.4673 38.7456C43.3732 38.7634 44.7448 40.0993 44.727 41.9518C44.727 43.8043 43.3554 45.1224 41.4317 45.1403C40.0779 45.1581 38.7242 45.1403 37.2636 45.1403C37.2636 46.0131 37.2636 46.8681 37.2636 47.7231C37.2636 49.1481 37.032 49.3796 35.607 49.3974C35.4823 49.3974 35.3398 49.4152 35.1795 49.4152C35.1795 50.8224 35.1795 52.2118 35.1795 53.6724C36.4798 53.6724 37.7623 53.6724 39.0448 53.6724C41.307 53.6724 42.6251 54.9549 42.5895 57.2171C42.5895 57.8227 42.7142 58.1789 43.2842 58.5174C44.531 59.2477 45.012 60.7796 44.5845 62.1155C44.157 63.4514 42.8388 64.3777 41.4317 64.3242C40.0423 64.2886 38.8311 63.3089 38.457 61.9552C38.0829 60.5836 38.6707 59.1586 39.8998 58.3927C40.4342 58.0721 40.6479 57.3596 40.4164 56.5758C40.2382 55.9702 39.7929 55.7743 39.1873 55.7743C37.1389 55.7921 35.1083 55.7743 32.9886 55.7743C32.9886 56.5046 32.953 57.1993 33.0064 57.8583C33.0242 58.0364 33.327 58.2324 33.523 58.3571C34.8589 59.1764 35.4467 60.7796 34.8945 62.2224C34.3423 63.683 32.7926 64.5558 31.3142 64.2352C29.7111 63.8967 28.6245 62.5252 28.7136 60.9221C28.7849 59.7821 29.3548 58.8736 30.3523 58.3393C30.762 58.1255 30.8689 57.8761 30.8511 57.4664C30.8155 56.9321 30.8511 56.3977 30.8511 55.8099C30.673 55.7921 30.4948 55.7565 30.3345 55.7565C28.4464 55.7565 26.5583 55.7565 24.6702 55.7565C23.7618 55.7565 23.4233 56.1305 23.3877 57.0568C23.3521 57.6802 23.4411 58.1077 24.1002 58.4818C25.3292 59.1764 25.7924 60.6905 25.3827 62.0264C24.973 63.3445 23.6905 64.2708 22.3189 64.2708C20.9118 64.2708 19.6471 63.2911 19.273 61.9196C18.899 60.5658 19.4155 59.123 20.6446 58.4105C21.1255 58.1255 21.3036 57.8405 21.2858 57.2883C21.2502 54.848 22.5149 53.619 24.973 53.619C26.2021 53.619 27.4133 53.619 28.678 53.619C28.678 52.2118 28.678 50.8224 28.678 49.344C28.4286 49.344 28.1792 49.344 27.912 49.344C26.968 49.3262 26.5939 48.9699 26.5939 47.9902C26.5939 47.0462 26.5939 46.0843 26.5939 45.069C25.1333 45.069 23.7439 45.0868 22.3546 45.069C20.128 45.0512 18.6674 43.0918 19.2552 40.9543C19.6293 39.6006 20.8227 38.6922 22.2655 38.6744C24.1536 38.6565 26.0417 38.6744 27.9299 38.6744C28.1614 38.6744 28.4108 38.6744 28.678 38.6744C28.678 37.9619 28.678 37.3028 28.678 36.5369C28.3039 36.5369 27.912 36.5369 27.5202 36.5369C26.2021 36.5369 24.9017 36.5369 23.5836 36.5369C22.2121 36.5369 21.1968 35.9669 20.5377 34.7556C20.4486 34.5953 20.2349 34.4172 20.0746 34.4172C16.9396 34.3994 13.8046 34.3994 10.5806 34.3994C10.5806 34.6844 10.5806 34.9516 10.5806 35.2009C10.5806 44.3565 10.5806 53.5121 10.5806 62.6677C10.5806 63.9858 10.2956 64.2708 8.97745 64.2708C7.80183 64.2708 6.62621 64.2708 5.45059 64.2708C4.57778 64.2708 4.18591 63.8789 4.18591 63.0061C4.18591 59.5861 4.18591 56.1661 4.18591 52.7462C4.18591 51.9446 4.57778 51.4993 5.23684 51.4815C5.93152 51.4815 6.30558 51.9268 6.30558 52.7818C6.30558 55.6318 6.30558 58.4639 6.30558 61.3139C6.39465 61.6167 6.39465 61.8661 6.39465 62.1867ZM17.0643 17.4063C18.8811 17.4063 20.609 17.3885 22.3368 17.4241C22.7821 17.4241 23.0671 17.2816 23.3521 16.961C27.7339 12.2051 35.0904 11.7954 39.7929 16.1773C40.8439 17.157 41.8235 17.531 43.1773 17.4241C44.4063 17.3351 45.6532 17.4063 46.8823 17.4063C46.9001 17.2638 46.9357 17.1926 46.9357 17.1391C46.9357 12.6504 46.9357 8.16169 46.9357 3.67296C46.9357 2.83578 46.526 2.47953 45.6176 2.47953C36.5511 2.47953 27.4845 2.47953 18.418 2.47953C17.4205 2.47953 17.0821 2.83578 17.0821 3.85109C17.0821 5.63233 17.0821 7.41357 17.0821 9.177C17.0643 11.9023 17.0643 14.6098 17.0643 17.4063ZM35.1973 34.4706C36.9608 34.4706 38.6173 34.4706 40.2917 34.4706C41.2357 34.4706 41.592 34.0966 41.592 33.1169C41.592 30.445 41.592 27.791 41.592 25.1191C41.592 24.5491 41.5564 23.9613 41.4673 23.3913C40.8439 18.7779 36.7826 15.2688 32.0267 15.2688C27.2352 15.251 22.978 18.7423 22.5683 23.3913C22.2655 26.74 22.4258 30.1422 22.408 33.5088C22.408 34.0609 22.7999 34.435 23.3521 34.4528C25.1511 34.4884 26.9324 34.4706 28.7849 34.4706C28.7849 34.1678 28.7849 33.9363 28.7849 33.6869C28.7849 31.7988 28.767 29.9106 28.7849 28.0225C28.8205 26.2057 30.3345 24.7985 32.1336 24.8697C33.808 24.941 35.1617 26.3482 35.1617 28.076C35.2151 30.1778 35.1973 32.2975 35.1973 34.4706ZM55.5035 34.4884C55.5035 43.7509 55.5035 52.9599 55.5035 62.1511C56.216 62.1511 56.8928 62.1511 57.5341 62.1511C57.5341 52.8887 57.5341 43.6975 57.5341 34.4884C56.8572 34.4884 56.216 34.4884 55.5035 34.4884ZM20.2349 30.2491C14.1787 30.2491 8.17589 30.2491 2.19092 30.2491C2.19092 30.9616 2.19092 31.6384 2.19092 32.2975C8.22933 32.2975 14.2143 32.2975 20.2349 32.2975C20.2349 31.6206 20.2349 30.9616 20.2349 30.2491ZM43.7651 32.2975C49.8213 32.2975 55.8241 32.2975 61.8091 32.2975C61.8091 31.5672 61.8091 30.9081 61.8091 30.2491C55.7707 30.2491 49.7857 30.2491 43.7651 30.2491C43.7651 30.9438 43.7651 31.6028 43.7651 32.2975ZM33.042 42.985C33.042 42.8068 33.0598 42.6821 33.0598 42.5753C33.0598 37.8194 33.0598 33.0813 33.0598 28.3253C33.0598 28.165 33.1133 27.9691 33.0242 27.8622C32.7926 27.5594 32.5433 27.1497 32.2405 27.0785C31.9198 27.0072 31.4389 27.1853 31.1895 27.4169C30.9758 27.6128 30.9402 28.0582 30.9402 28.3966C30.9223 33.0634 30.9223 37.7125 30.9402 42.3793C30.9402 42.5753 30.958 42.7534 30.9758 42.9671C31.6883 42.985 32.3473 42.985 33.042 42.985ZM6.35902 28.0403C6.35902 23.4091 6.35902 18.8313 6.35902 14.2535C5.64653 14.2535 4.96965 14.2535 4.31059 14.2535C4.31059 18.867 4.31059 23.4447 4.31059 28.0403C4.98747 28.0403 5.64653 28.0403 6.35902 28.0403ZM8.56776 17.4241C8.56776 21.0044 8.56776 24.5135 8.56776 28.0225C9.28026 28.0225 9.95713 28.0225 10.5984 28.0225C10.5984 24.46 10.5984 20.9332 10.5984 17.4241C9.9215 17.4241 9.28026 17.4241 8.56776 17.4241ZM28.767 40.8831C26.7008 40.8831 24.6524 40.8831 22.6218 40.8831C21.7668 40.8831 21.3215 41.275 21.3393 41.9697C21.3571 42.6465 21.7846 43.0028 22.6039 43.0206C24.5099 43.0206 26.4336 43.0206 28.3395 43.0206C28.482 43.0206 28.6245 42.985 28.767 42.9671C28.767 42.2547 28.767 41.5956 28.767 40.8831ZM35.2329 43.0028C37.4061 43.0028 39.5079 43.0206 41.6276 43.0028C42.2688 43.0028 42.6607 42.5575 42.6785 41.9518C42.6785 41.3106 42.2688 40.9009 41.5742 40.8831C40.2917 40.8653 38.9914 40.8831 37.7089 40.8831C36.8895 40.8831 36.0879 40.8831 35.2329 40.8831C35.2329 41.6134 35.2329 42.2725 35.2329 43.0028ZM35.1617 47.2421C35.1617 46.5118 35.1617 45.8528 35.1617 45.1759C33.042 45.1759 30.9402 45.1759 28.8383 45.1759C28.8383 45.8884 28.8383 46.5653 28.8383 47.2599C30.8333 47.2599 32.7748 47.2599 34.7342 47.2599C34.8589 47.2777 35.0014 47.2599 35.1617 47.2421ZM30.9758 49.4331C30.9758 50.858 30.9758 52.2474 30.9758 53.619C31.6883 53.619 32.3651 53.619 33.0242 53.619C33.0242 52.194 33.0242 50.8402 33.0242 49.4331C32.3473 49.4331 31.6883 49.4331 30.9758 49.4331ZM57.6053 28.0582C57.6053 27.7375 57.6053 27.4703 57.6053 27.2032C57.5875 26.3304 57.2313 25.9563 56.3407 25.9385C55.6994 25.9385 55.0582 25.9207 54.4169 25.9385C53.7757 25.9563 53.3838 26.3304 53.3482 26.9716C53.3304 27.31 53.3482 27.6663 53.3482 28.0403C54.7732 28.0582 56.1447 28.0582 57.6053 28.0582ZM21.4818 19.5973C19.9855 19.5973 18.5427 19.5973 17.0643 19.5973C17.0643 19.9001 17.0643 20.1316 17.0643 20.381C17.0821 21.3073 17.4383 21.6635 18.3646 21.6813C19.0058 21.6813 19.6471 21.6991 20.2883 21.6635C20.4665 21.6635 20.7158 21.521 20.7871 21.3785C21.0365 20.8263 21.2324 20.2385 21.4818 19.5973ZM46.9357 19.5794C45.4216 19.5794 43.9967 19.5794 42.5538 19.5794C43.0882 21.6813 43.0882 21.6813 45.1188 21.6813C45.3326 21.6813 45.5641 21.6813 45.7779 21.6813C46.5082 21.6457 46.8823 21.2894 46.9179 20.5769C46.9535 20.2563 46.9357 19.9535 46.9357 19.5794ZM23.4589 61.1714C23.4768 60.5836 23.0314 60.1027 22.4436 60.0849C21.838 60.0492 21.3393 60.5302 21.3393 61.1536C21.3393 61.7414 21.8024 62.2045 22.3902 62.2045C22.978 62.2045 23.4411 61.7592 23.4589 61.1714ZM32.0267 62.2045C32.6145 62.1867 33.0776 61.7236 33.0598 61.1358C33.0598 60.5302 32.5433 60.0492 31.9377 60.0849C31.3498 60.1205 30.9223 60.6014 30.9402 61.1892C30.958 61.7771 31.4389 62.2224 32.0267 62.2045ZM42.6607 61.1536C42.6607 60.5658 42.2154 60.1027 41.6276 60.0849C41.022 60.0671 40.5232 60.548 40.541 61.1714C40.5589 61.7592 41.022 62.2224 41.6098 62.2045C42.1798 62.2045 42.6607 61.7414 42.6607 61.1536Z" fill="#C79A53"/>
<path d="M4.27497 47.8299C4.27497 47.634 4.25716 47.438 4.27497 47.2243C4.32841 46.6009 4.75591 46.1912 5.34372 46.1912C5.91372 46.1912 6.34121 46.6008 6.37684 47.1887C6.41246 47.5627 6.39465 47.9368 6.37684 48.3108C6.34121 49.0055 5.94934 49.3974 5.29028 49.3974C4.64904 49.3974 4.27497 48.9877 4.23935 48.2752C4.25716 48.1505 4.27497 47.9902 4.27497 47.8299Z" fill="#C79A53"/>
</g>
<defs>
<clipPath id="clip0_0_1510">
<rect width="64" height="64" fill="white" transform="translate(0 0.342041)"/>
</clipPath>
</defs>
</svg>
