<svg width="64" height="65" viewBox="0 0 64 65" fill="none" xmlns="http://www.w3.org/2000/svg">
<g clip-path="url(#clip0_0_2933)">
<path d="M64 42.0826C63.5959 42.8724 62.9781 43.3132 61.9963 43.198V62.9311C61.9963 64.0766 61.7408 64.3354 60.6154 64.3354H57.6817C56.6681 64.3354 56.3759 64.0465 56.3759 63.043V43.2514H54.6845C54.454 43.7106 54.2887 44.1898 53.9999 44.5755C53.5908 45.1182 52.9796 45.3352 52.2934 45.3319C51.0294 45.3319 49.7637 45.3319 48.4746 45.3319V47.2772C49.5416 47.2772 50.5802 47.3289 51.6104 47.2655C53.9765 47.1202 54.7145 48.0319 54.5676 50.2193C54.5409 50.6133 54.5676 51.0107 54.5676 51.4065C54.5359 52.7423 53.8012 53.4903 52.4637 53.5204C51.36 53.5438 50.2546 53.5204 49.1509 53.5204C48.9472 53.5204 48.7418 53.5387 48.493 53.5488V55.3955C48.8687 55.4439 49.2594 55.4707 49.6401 55.5458C51.2197 55.8614 52.3418 56.7647 53.0331 58.2174C53.1425 58.4596 53.2921 58.6814 53.4756 58.8736C54.5509 59.9473 54.8114 61.3782 54.1435 62.6456C53.8382 63.2354 53.3531 63.7128 52.7583 64.0085C52.1636 64.3042 51.4902 64.4029 50.8357 64.2903C49.3863 64.0081 48.4145 62.9161 48.2559 61.3899C48.2559 61.3098 48.2359 61.223 48.2225 61.1194H43.0279C42.9645 62.2081 42.5804 63.1231 41.6821 63.7543C41.0467 64.204 40.2663 64.4002 39.4938 64.3044C38.7213 64.2086 38.0124 63.8277 37.5062 63.2364C37 62.6451 36.7328 61.886 36.7572 61.108C36.7816 60.3299 37.0957 59.589 37.6379 59.0306C37.8873 58.76 38.0986 58.4567 38.2658 58.1289C39.1006 56.5193 40.4181 55.6376 42.2197 55.4707C42.365 55.4573 42.5103 55.4573 42.6555 55.4489C42.6928 55.4374 42.7286 55.4217 42.7624 55.4022V53.5655C42.5604 53.5554 42.3416 53.5337 42.1229 53.5337C41.0192 53.5337 39.9138 53.5488 38.8101 53.5254C37.4476 53.497 36.7096 52.7339 36.6912 51.3647C36.6912 50.6568 36.6712 49.9471 36.6912 49.2408C36.7363 48.0586 37.5027 47.3072 38.6832 47.2872C39.8086 47.2672 40.934 47.2872 42.0578 47.2872H42.7691V45.3386H39.2242C37.7331 45.3386 36.9984 44.7492 36.6695 43.2614H34.8161V62.856C34.8161 64.1183 34.5923 64.3354 33.3133 64.337C32.3114 64.337 31.3096 64.337 30.3077 64.337C29.538 64.337 29.1907 64.0031 29.1873 63.2383C29.174 60.9675 29.174 58.6972 29.1873 56.4274C29.1873 55.7595 29.5964 55.3371 30.1458 55.3554C30.6951 55.3738 31.0441 55.7729 31.0491 56.4191C31.0641 58.169 31.0491 59.9256 31.0491 61.6688V62.4319H32.8858V43.2631H31.0491V44.0078C31.0491 46.4868 31.0491 48.9659 31.0491 51.4449C31.0588 51.6735 31.0431 51.9026 31.0023 52.1278C30.9549 52.3302 30.8398 52.5104 30.6761 52.6385C30.5124 52.7667 30.3099 52.8351 30.102 52.8326C29.8941 52.8301 29.6933 52.7567 29.5328 52.6246C29.3722 52.4925 29.2616 52.3096 29.219 52.1061C29.1825 51.8798 29.1685 51.6505 29.1773 51.4215C29.1773 48.9636 29.1773 46.5057 29.1773 44.0479V43.2514H27.4307C26.9498 44.8994 26.3654 45.3319 24.6022 45.3319H21.3044V47.2772H23.956C24.4769 47.2772 24.9979 47.2571 25.5172 47.2772C26.0129 47.2894 26.4842 47.4946 26.8307 47.8493C27.1772 48.2039 27.3716 48.6799 27.3723 49.1757C27.394 49.9254 27.384 50.6785 27.3723 51.4265C27.3606 52.6721 26.6209 53.4636 25.3686 53.5054C24.2448 53.5421 23.1194 53.5154 21.994 53.517H21.2844V55.3972C21.6667 55.4439 22.0558 55.469 22.4348 55.5425C24.0211 55.848 25.1298 56.7664 25.8411 58.204C25.9749 58.4799 26.1506 58.7334 26.3621 58.9554C26.7216 59.3023 26.9926 59.7304 27.1523 60.2038C27.312 60.6772 27.3557 61.182 27.2797 61.6758C27.2038 62.1695 27.0104 62.6379 26.7158 63.0414C26.4213 63.4449 26.0341 63.7718 25.587 63.9945C25.1398 64.2173 24.6457 64.3295 24.1462 64.3217C23.6467 64.3138 23.1563 64.1862 22.7164 63.9494C22.2765 63.7127 21.8998 63.3738 21.6181 62.9613C21.3363 62.5487 21.1578 62.0745 21.0974 61.5786C21.079 61.4367 21.059 61.2948 21.0339 61.1228H15.8577C15.8293 61.2897 15.7942 61.4667 15.7692 61.6471C15.6808 62.2974 15.389 62.9032 14.9355 63.3777C14.482 63.8522 13.8901 64.1711 13.2444 64.2887C12.5986 64.4064 11.9323 64.3168 11.3406 64.0327C10.7488 63.7487 10.2621 63.2848 9.95008 62.7074C9.63963 62.1248 9.51863 61.4599 9.60393 60.8054C9.68923 60.1508 9.97659 59.5391 10.426 59.0556C10.6897 58.7699 10.9144 58.4504 11.0939 58.1055C11.9371 56.4959 13.2645 55.6243 15.0612 55.469C15.2282 55.454 15.3951 55.4523 15.5888 55.4439V53.5671C15.3751 53.5554 15.158 53.5354 14.9393 53.5337C13.8356 53.5337 12.7319 53.5488 11.6282 53.5337C10.2623 53.507 9.50926 52.7289 9.50258 51.3814C9.50258 50.7347 9.50258 50.089 9.50258 49.4445C9.50258 48.0603 10.2757 47.3005 11.6733 47.2905L15.4235 47.2755C15.4779 47.2644 15.5307 47.2465 15.5805 47.2221V45.3386H12.2777C10.5211 45.3386 9.93171 44.9028 9.43913 43.233H7.63079V62.9712C7.63079 64.0665 7.36196 64.3354 6.27161 64.3354C5.26976 64.3354 4.2679 64.3354 3.26605 64.3354C2.30093 64.3354 2.00205 64.0348 2.00205 63.0647C2.00205 56.7118 2.00205 50.3584 2.00205 44.0045V43.2347C1.80836 43.2247 1.6681 43.2213 1.52784 43.2097C0.622829 43.1312 0.0250616 42.5301 0.00836405 41.6217C-0.011673 40.6633 -0.00165447 39.7048 0.00836405 38.7464C0.00836405 37.5859 0.621162 36.9698 1.77496 36.9664C4.11262 36.9664 6.45028 36.9664 8.77457 36.9664H9.4742V35.0345C8.83969 35.0345 8.22355 35.0429 7.60741 35.0345C6.31669 35.0095 5.75733 34.4351 5.75733 33.136C5.75733 29.595 5.75733 26.054 5.75733 22.5131C5.75733 21.249 6.32337 20.6763 7.57903 20.6646C8.3922 20.6646 9.2037 20.6646 10.0169 20.6646C10.7649 20.6646 11.1857 20.9986 11.2024 21.568C11.2191 22.1374 10.7799 22.5231 10.0035 22.5348C9.22707 22.5464 8.47068 22.5348 7.66585 22.5348V33.1143H9.44414C9.51594 32.5449 9.54266 31.9822 9.66121 31.4446C9.95494 30.1644 10.6661 29.0183 11.6827 28.1867C12.6993 27.3551 13.9636 26.8852 15.2766 26.8511C17.2953 26.816 19.3174 26.831 21.3378 26.8511C24.7224 26.8711 27.242 29.3307 27.3773 32.7269C27.3773 32.8505 27.3973 32.9724 27.4107 33.1293H29.2224V22.5364H28.4626C24.0456 22.5364 19.6291 22.5364 15.2131 22.5364C14.9434 22.5476 14.6734 22.5274 14.4083 22.4763C13.9408 22.3661 13.7154 22.0322 13.7321 21.558C13.7237 21.3462 13.7961 21.1392 13.9347 20.9789C14.0733 20.8186 14.2677 20.717 14.4784 20.6947C14.6637 20.6685 14.8509 20.659 15.0378 20.6663C19.7465 20.6663 24.4547 20.6663 29.1623 20.6663C30.5916 20.6663 31.1276 21.2023 31.1276 22.6233C31.1276 26.1231 31.1276 29.6229 31.1276 33.1227C31.1276 34.4585 30.5665 35.0195 29.2307 35.0379C28.633 35.0379 28.0352 35.0379 27.409 35.0379V36.928H36.6361V35.0345C36.1051 35.0345 35.5524 35.0345 35.0014 35.0345C33.5437 35.0245 32.9977 34.4835 32.9977 33.0308V22.5949C32.9977 21.209 33.5404 20.663 34.9246 20.663C42.0912 20.663 49.2572 20.663 56.4227 20.663C57.842 20.663 58.3696 21.2023 58.3696 22.6366C58.3696 23.742 58.3696 24.8457 58.3696 25.9494C58.3696 26.6624 57.9889 27.0999 57.4128 27.0848C56.8368 27.0698 56.5078 26.6507 56.4961 25.9694C56.4961 24.849 56.4961 23.7286 56.4961 22.5732H34.9229V33.126H36.6261C36.7079 32.5299 36.7446 31.9572 36.8749 31.3895C37.1697 30.1214 37.8778 28.9874 38.8877 28.1658C39.8976 27.3442 41.152 26.8817 42.4535 26.8511C44.5357 26.816 46.6279 26.8193 48.7034 26.8511C50.1973 26.8646 51.6304 27.4448 52.7128 28.4746C53.7952 29.5043 54.4462 30.9066 54.5342 32.398C54.5509 32.6234 54.5743 32.8488 54.5976 33.1126H56.4961C56.4961 32.3279 56.4961 31.5464 56.4961 30.775C56.4961 30.042 56.8418 29.6062 57.4128 29.6062C57.9839 29.6062 58.3663 30.0386 58.3696 30.8067C58.3696 31.6616 58.3813 32.5149 58.3696 33.3698C58.3529 34.36 57.7902 34.9711 56.7984 35.0279C56.0937 35.0696 55.3858 35.0279 54.6277 35.0279V36.9648H55.9284C57.9321 36.9648 59.9358 36.9982 61.9279 36.9497C62.8846 36.9247 63.5759 37.2269 64.0034 38.0885L64 42.0826ZM15.6306 43.4635C15.6306 42.8573 15.6306 42.3397 15.6306 41.8204C15.6473 40.1507 16.8245 38.9267 18.4174 38.9117C20.0103 38.8967 21.2359 40.1373 21.256 41.8338C21.256 42.3664 21.256 42.8991 21.256 43.4635C22.5066 43.4635 23.6704 43.4417 24.8343 43.4735C25.3586 43.4868 25.5172 43.3065 25.5139 42.7855C25.4972 39.4544 25.5139 36.1215 25.5005 32.7904C25.4855 30.4845 23.7155 28.7362 21.4013 28.7245C19.4243 28.7101 17.4462 28.7101 15.467 28.7245C14.9292 28.7201 14.396 28.8227 13.8983 29.0265C13.4007 29.2303 12.9486 29.5311 12.5684 29.9114C12.1883 30.2918 11.8876 30.744 11.6841 31.2417C11.4805 31.7394 11.3781 32.2727 11.3827 32.8104C11.3694 33.9793 11.3827 35.1481 11.3827 36.3169C11.3827 38.4876 11.3827 40.6482 11.3827 42.8122C11.3827 43.1696 11.3827 43.4802 11.8837 43.4802C13.1026 43.4534 14.3282 43.4635 15.6306 43.4635ZM42.8142 43.4635C42.8142 43.1813 42.8042 42.9625 42.8142 42.7354C42.8459 42.1343 42.8008 41.5115 42.9427 40.9371C43.265 39.633 44.5223 38.8165 45.8798 38.9334C46.5298 38.9809 47.1413 39.2596 47.6036 39.719C48.0658 40.1785 48.3482 40.7883 48.3995 41.438C48.4546 42.0909 48.4095 42.7538 48.4095 43.4685C49.7002 43.4685 50.8824 43.4518 52.0646 43.4685C52.5305 43.4768 52.6908 43.3015 52.6908 42.8473C52.6808 39.4961 52.7192 36.1416 52.6707 32.7904C52.639 30.3709 50.8891 28.7245 48.463 28.7245C46.6262 28.7245 44.7978 28.7245 42.9645 28.7245C40.2461 28.7245 38.5763 30.3943 38.568 33.1293C38.568 35.3151 38.568 37.5024 38.568 39.6881C38.568 40.7501 38.548 41.8137 38.5864 42.874C38.5864 43.0761 38.8185 43.4384 38.952 43.4434C40.2144 43.4768 41.48 43.4584 42.8142 43.4584V43.4635ZM3.92393 43.2464V62.4152H5.72393V43.2414L3.92393 43.2464ZM58.2945 43.2464V62.4319H60.0911V43.2414L58.2945 43.2464ZM11.4128 51.6135H25.4754V49.2057H11.4128V51.6135ZM38.6164 51.6135H52.6423V49.2041H38.6164V51.6135ZM36.6628 38.8733H27.4274V41.3061H36.6544L36.6628 38.8733ZM9.45583 41.3162V38.8716H1.92023V41.3162H9.45583ZM54.6177 38.8666V41.2894H62.0915V38.8666H54.6177ZM13.4699 58.0688C13.9708 58.4027 14.4267 58.7233 14.9009 59.0105C15.0842 59.1284 15.2945 59.1974 15.512 59.2109C17.4656 59.2259 19.4209 59.2226 21.3762 59.2109C21.5571 59.2173 21.7364 59.1752 21.8955 59.089C22.4048 58.7668 22.8973 58.4211 23.4116 58.0588C23.18 57.8298 22.905 57.6493 22.6029 57.5278C22.3007 57.4062 21.9774 57.3461 21.6517 57.3508C19.5111 57.3352 17.3694 57.3352 15.2265 57.3508C14.9011 57.3453 14.5779 57.4053 14.2761 57.5272C13.9744 57.6491 13.7002 57.8305 13.4699 58.0604V58.0688ZM50.7539 57.9452C50.0676 57.7215 49.4815 57.3809 48.8837 57.3625C46.713 57.294 44.5541 57.3224 42.3884 57.3424C42.0685 57.3337 41.7504 57.3924 41.4546 57.5146C41.1589 57.6369 40.8922 57.82 40.6719 58.0521C41.1845 58.4027 41.6654 58.7517 42.1646 59.069C42.3224 59.1581 42.5011 59.2037 42.6823 59.2009C44.6392 59.2109 46.5962 59.2109 48.5531 59.2009C48.7531 59.1956 48.9483 59.1381 49.1192 59.0339C49.6084 58.74 50.0776 58.4061 50.7539 57.9452ZM19.3792 47.2588C19.3792 45.4221 19.3792 43.6455 19.3792 41.8789C19.3792 41.2009 19.0068 40.7952 18.4358 40.8002C17.8647 40.8052 17.5141 41.211 17.5107 41.8956C17.5107 43.2314 17.5107 44.5672 17.5107 45.8913V47.2588H19.3792ZM44.7093 47.2438H46.5461C46.5461 45.3469 46.5628 43.4968 46.5361 41.6484C46.5361 41.1158 46.1704 40.8136 45.6344 40.8136C45.0984 40.8136 44.7294 41.1058 44.7227 41.6484C44.6926 43.4751 44.7093 45.3252 44.7093 47.2354V47.2438ZM41.1227 61.1962C41.1181 60.9513 41.0414 60.7131 40.9021 60.5116C40.7628 60.31 40.5672 60.154 40.3397 60.063C40.1122 59.9721 39.863 59.9502 39.6231 60.0002C39.3833 60.0502 39.1635 60.1698 38.9913 60.3441C38.8191 60.5184 38.7021 60.7396 38.6549 60.98C38.6078 61.2204 38.6326 61.4694 38.7263 61.6958C38.8199 61.9222 38.9783 62.1159 39.1815 62.2528C39.3847 62.3897 39.6237 62.4636 39.8687 62.4653C40.0351 62.4642 40.1996 62.4302 40.3527 62.3653C40.5059 62.3005 40.6447 62.206 40.7613 62.0873C40.8778 61.9686 40.9697 61.828 41.0318 61.6737C41.0938 61.5193 41.1247 61.3542 41.1227 61.1879V61.1962ZM50.1394 61.1712C50.1298 61.4187 50.1942 61.6634 50.3243 61.8741C50.4545 62.0848 50.6445 62.252 50.8701 62.3541C51.0957 62.4563 51.3467 62.489 51.5909 62.4478C51.8351 62.4067 52.0616 62.2937 52.2413 62.1233C52.421 61.9529 52.5458 61.7327 52.5998 61.491C52.6538 61.2493 52.6345 60.997 52.5443 60.7663C52.4542 60.5356 52.2974 60.337 52.0939 60.1959C51.8904 60.0547 51.6494 59.9775 51.4017 59.974C51.0777 59.9709 50.765 60.0927 50.5284 60.314C50.2918 60.5354 50.1495 60.8394 50.131 61.1628L50.1394 61.1712ZM13.9341 61.2263C13.9328 60.9822 13.8591 60.7439 13.7223 60.5417C13.5856 60.3395 13.3919 60.1824 13.1658 60.0903C12.9397 59.9982 12.6914 59.9752 12.4523 60.0242C12.2131 60.0733 11.9939 60.1921 11.8223 60.3658C11.6508 60.5395 11.5346 60.7601 11.4885 60.9999C11.4423 61.2396 11.4683 61.4876 11.5632 61.7125C11.6581 61.9375 11.8175 62.1292 12.0214 62.2635C12.2253 62.3978 12.4644 62.4686 12.7085 62.4669C13.0352 62.4616 13.3466 62.3274 13.5746 62.0934C13.8027 61.8594 13.9289 61.5447 13.9258 61.2179L13.9341 61.2263ZM24.2265 59.974C23.9786 59.9657 23.7339 60.0315 23.5236 60.163C23.3133 60.2944 23.1469 60.4856 23.0458 60.7121C22.9447 60.9385 22.9134 61.19 22.9559 61.4344C22.9984 61.6787 23.1128 61.9048 23.2845 62.0838C23.4561 62.2629 23.6772 62.3866 23.9196 62.4394C24.1619 62.4921 24.4145 62.4714 24.645 62.3799C24.8755 62.2884 25.0735 62.1302 25.2137 61.9256C25.3539 61.7211 25.4299 61.4793 25.432 61.2313C25.4358 61.0684 25.4074 60.9064 25.3483 60.7545C25.2893 60.6026 25.2008 60.4639 25.088 60.3463C24.9752 60.2287 24.8403 60.1345 24.6911 60.0692C24.5418 60.0039 24.381 59.9687 24.2181 59.9656L24.2265 59.974ZM19.3458 55.4406V53.5805H17.5374V55.4406H19.3458ZM44.7411 53.5705V55.4239H46.5227V53.5705H44.7411Z" fill="#C79A53"/>
<path d="M55.4943 0.338745C55.9952 0.640971 56.1739 1.08179 56.1254 1.65618C56.092 2.06527 56.1254 2.48104 56.1254 2.9636C57.0204 2.9636 57.867 2.9636 58.7136 2.9636C59.8824 2.97195 60.4885 3.57306 60.4985 4.72853C60.4985 5.45654 60.5102 6.18622 60.4985 6.91591C60.4801 7.94948 59.8523 8.56729 58.8071 8.58566C58.2026 8.58566 57.5965 8.55894 56.997 8.60403C56.8909 8.62386 56.7907 8.66753 56.7039 8.73175C56.6172 8.79596 56.5461 8.87904 56.4961 8.97471C55.7414 10.9133 54.2586 11.9602 52.1848 11.9602C38.7322 11.9602 25.2778 11.9602 11.8218 11.9602C9.74801 11.9602 8.26527 10.9116 7.51054 8.97304C7.46056 8.87753 7.38947 8.79465 7.30267 8.73071C7.21588 8.66677 7.11566 8.62345 7.00962 8.60403C6.43021 8.55727 5.84079 8.60403 5.26138 8.58399C4.29126 8.55894 3.65842 7.93947 3.63504 6.97602C3.61668 6.16452 3.61501 5.35135 3.63504 4.53985C3.66009 3.61313 4.2946 2.98864 5.22966 2.96861C6.12298 2.94857 7.01629 2.96861 8.00312 2.96861C8.00312 2.51443 8.0315 2.08364 8.00312 1.65952C7.95636 1.08346 8.1367 0.644311 8.63595 0.342085H9.26044C9.76137 0.644311 9.93837 1.08345 9.89161 1.65785C9.85822 2.08197 9.89161 2.51277 9.89161 2.9302H54.2503C54.2503 2.48104 54.2787 2.06694 54.2503 1.65785C54.2019 1.08345 54.3856 0.642641 54.8831 0.342085L55.4943 0.338745ZM5.53355 6.7172H40.4431C40.6507 6.70491 40.859 6.70938 41.0659 6.73056C41.5819 6.81739 41.9008 7.11962 41.8908 7.66229C41.8808 8.20496 41.5685 8.49716 41.0559 8.57898C40.8484 8.59934 40.6396 8.6038 40.4314 8.59234H9.379C9.97844 9.71274 10.8267 10.0951 11.9421 10.0951C25.3112 10.0873 38.6815 10.0873 52.0529 10.0951C52.2406 10.1001 52.4284 10.0951 52.6156 10.0801C53.529 9.98658 54.2854 9.41219 54.5191 8.59568H46.895C46.3741 8.59568 45.8531 8.61238 45.3338 8.58566C45.0908 8.58224 44.8587 8.48454 44.6864 8.31319C44.5141 8.14184 44.4152 7.91024 44.4104 7.66729C44.4127 7.42495 44.5075 7.19262 44.6754 7.01787C44.8433 6.84311 45.0717 6.73914 45.3138 6.72722C45.4991 6.71053 45.6878 6.72722 45.8765 6.72722H58.595V4.89049H5.53355V6.7172Z" fill="#C79A53"/>
</g>
<defs>
<clipPath id="clip0_0_2933">
<rect width="64" height="64" fill="white" transform="translate(0 0.342041)"/>
</clipPath>
</defs>
</svg>
