<svg width="186" height="104" viewBox="0 0 186 104" fill="none" xmlns="http://www.w3.org/2000/svg">
<g clip-path="url(#clip0_0_2880)">
<path d="M4.75103 80.1812V92.9803H0.514832V72.4329H5.33133L11.5406 84.945L17.7498 72.4329H22.5663V92.9803H18.3301V80.1812L11.5406 93.6117L4.75103 80.1812Z" fill="white"/>
<path d="M36.9578 72.031C38.4665 72.031 39.8593 72.318 41.194 72.9493C42.5286 73.5233 43.7473 74.3842 44.7338 75.5321C46.5327 77.4835 47.4032 79.8367 47.4032 82.6491C47.4032 84.2562 47.113 85.8058 46.4747 87.2407C45.8364 88.6756 44.9659 89.8809 43.7473 90.914C41.7743 92.6359 39.4531 93.4968 36.7837 93.4968C35.2169 93.4968 33.65 93.1524 32.1993 92.5211C30.7485 91.8897 29.5299 90.9714 28.4854 89.7661C26.8025 87.8721 25.932 85.5189 25.932 82.8213C25.932 81.329 26.2222 79.8941 26.8025 78.574C27.3828 77.1966 28.1952 76.0487 29.2978 75.0156C31.3288 73.0067 33.8822 72.031 36.9578 72.031ZM36.6096 75.9339C34.6946 75.9339 33.1278 76.68 31.8511 78.1723C30.8066 79.435 30.2843 80.9273 30.2843 82.7065C30.2843 84.6579 30.9226 86.265 32.1413 87.5277C33.4179 88.7904 34.8687 89.4217 36.6676 89.4217C38.5246 89.4217 40.1494 88.733 41.4261 87.3555C42.5286 86.1502 43.109 84.5431 43.109 82.6491C43.109 80.5829 42.4126 78.9184 41.0779 77.6557C39.8012 76.5078 38.3505 75.9339 36.6096 75.9339Z" fill="white"/>
<path d="M60.7501 72.031C62.2589 72.031 63.6516 72.318 64.9863 72.9493C66.321 73.5233 67.5396 74.3842 68.5261 75.5321C70.3251 77.4835 71.1955 79.8367 71.1955 82.6491C71.1955 84.2562 70.9054 85.8058 70.267 87.2407C69.6287 88.6756 68.7582 89.8809 67.5396 90.914C65.5666 92.6359 63.2454 93.4968 60.576 93.4968C59.0092 93.4968 57.4424 93.1524 55.9916 92.5211C54.5409 91.8897 53.3222 90.9714 52.2777 89.7661C50.5948 87.8721 49.7244 85.5189 49.7244 82.8213C49.7244 81.329 50.0145 79.8941 50.5948 78.574C51.1751 77.1966 51.9875 76.0487 53.0901 75.0156C55.1792 73.0067 57.6745 72.031 60.7501 72.031ZM60.4019 75.9339C58.4869 75.9339 56.9201 76.68 55.6434 78.1723C54.5989 79.435 54.0766 80.9273 54.0766 82.7065C54.0766 84.6579 54.715 86.265 55.9336 87.5277C57.2102 88.7904 58.661 89.4217 60.4599 89.4217C62.3169 89.4217 63.9417 88.733 65.2184 87.3555C66.321 86.1502 66.9013 84.5431 66.9013 82.6491C66.9013 80.5829 66.2049 78.9184 64.8702 77.6557C63.6516 76.5078 62.1428 75.9339 60.4019 75.9339Z" fill="white"/>
<path d="M78.8555 85.9207V92.9803H74.6193V72.4329H81.2347C83.73 72.4329 85.645 73.0068 86.9797 74.1547C88.3144 75.3026 88.9527 76.9097 88.9527 79.0333C88.9527 80.1238 88.7206 81.1569 88.3144 82.1326C87.9082 83.051 87.2699 83.8545 86.5155 84.4858C85.2388 85.4616 83.614 85.9207 81.5249 85.9207H78.8555ZM78.8555 82.477H80.6544C81.4668 82.477 82.1632 82.3622 82.6855 82.1326C83.9041 81.6161 84.5424 80.6404 84.5424 79.2629C84.5424 77.9428 84.0202 77.0245 82.9176 76.4505C82.3373 76.1635 81.6409 75.9914 80.7705 75.9914H78.7975V82.477H78.8555Z" fill="white"/>
<path d="M102.3 89.4218H94.2915L93.0729 92.9803H88.5465L95.7422 72.4329H101.081L108.161 92.9803H103.46L102.3 89.4218ZM101.197 85.9781L98.2956 77.4836L95.3941 85.9781H101.197Z" fill="white"/>
<path d="M130.734 87.0111H134.913C134.913 87.5277 134.971 87.9295 135.087 88.2164C135.319 88.6756 135.667 89.02 136.189 89.3069C136.653 89.5365 137.176 89.6513 137.756 89.6513C138.568 89.6513 139.265 89.4217 139.787 88.9626C140.251 88.5608 140.483 88.0442 140.483 87.4703C140.483 86.7816 140.193 86.265 139.613 85.8632C139.207 85.5763 138.336 85.1745 137.06 84.7153C135.029 84.0266 133.52 83.2231 132.649 82.4195C131.489 81.3864 130.908 80.0089 130.908 78.2871C130.908 76.3356 131.605 74.786 132.94 73.6381C134.216 72.5476 135.841 72.031 137.756 72.031C139.091 72.031 140.251 72.318 141.296 72.8345C142.34 73.3511 143.153 74.0972 143.733 75.073C144.313 75.9913 144.604 77.0818 144.72 78.3445H140.367C140.251 76.6226 139.323 75.8191 137.64 75.8191C136.77 75.8191 136.131 76.0487 135.667 76.5078C135.261 76.9096 135.087 77.3688 135.087 77.9427C135.087 78.8036 135.493 79.435 136.363 79.8941C136.77 80.1237 137.582 80.4681 138.801 80.8699C140.309 81.3864 141.412 81.903 142.108 82.3621C143.907 83.51 144.778 85.1171 144.778 87.1259C144.778 89.3069 143.907 90.9714 142.224 92.1193C140.948 92.9802 139.439 93.382 137.64 93.382C136.189 93.382 134.971 93.095 133.868 92.5785C132.823 92.0619 131.953 91.3158 131.373 90.3401C130.967 89.4217 130.734 88.2738 130.734 87.0111Z" fill="white"/>
<path d="M123.307 72.4326V85.2891L115.531 73.8675V81.3289L123.423 92.9801H127.601V72.4326H123.307Z" fill="white"/>
<path d="M110.888 92.234V58.3135L106.594 60.7241V57.223L110.598 54.9272L111.643 54.2959L124.061 47.2363V35.0111L119.767 32.6005V29.042L123.191 30.9934L132.243 36.159L146.635 44.3665L154.411 48.7859L158.415 51.0817V54.6402L154.121 52.1722V67.9559H137.466V46.4901L140.542 48.2694V64.8566H150.987V50.393L133.346 40.2914L127.195 36.7903V63.8234H124.061V50.7948L114.022 56.5343V92.234H110.888Z" fill="white"/>
<path d="M84.3684 103.254V100.155H164.508V7.74834L140.542 21.4084V37.0199L137.408 35.2406V23.1876L133.114 25.6556V22.0971L168.512 1.89404L171.936 0V3.5585L167.642 6.02649V58.3135L181.105 66.0044L185.109 68.3002V71.8587L180.814 69.3907V103.311H84.3684V103.254ZM167.642 100.212H177.739V67.6115L167.642 61.872V100.212Z" fill="#C79A53"/>
<path d="M1.90758 100.384C2.02364 100.384 2.08167 100.384 2.1397 100.441C2.19773 100.499 2.25576 100.556 2.31379 100.671V100.728H3.06818V100.671C3.01015 100.384 2.89409 100.154 2.66197 100.04C2.42985 99.8675 2.19773 99.8101 1.84955 99.8101C1.32728 99.8101 0.921064 99.9822 0.572884 100.384C0.282733 100.728 0.108643 101.302 0.108643 101.934C0.108643 102.622 0.282733 103.139 0.572884 103.541C0.863034 103.943 1.26924 104.115 1.79152 104.115C1.96561 104.115 2.1397 104.115 2.31379 104.057C2.48788 104 2.72 103.943 2.95212 103.885H3.01015V101.819H1.44334V102.508H2.31379V103.426C2.19773 103.483 2.1397 103.483 2.08167 103.483C2.02364 103.311 1.90758 103.311 1.84955 103.311C1.5594 103.311 1.32728 103.196 1.15318 102.967C0.979094 102.737 0.921064 102.335 0.921064 101.819C0.921064 101.302 0.979094 100.958 1.15318 100.728C1.32728 100.499 1.5594 100.384 1.90758 100.384Z" fill="white"/>
<path d="M7.53652 101.761C7.71061 101.589 7.76864 101.302 7.76864 101.015C7.76864 100.614 7.65258 100.327 7.42046 100.097C7.18834 99.9248 6.78213 99.8101 6.31789 99.8101H5.15729V103.943H5.85365V102.278H6.20183L7.13031 103.943H8.00076L6.95622 102.163C7.18834 102.048 7.36243 101.934 7.53652 101.761ZM5.79562 100.441H6.1438C6.43395 100.441 6.60804 100.499 6.78213 100.556C6.89819 100.671 6.95622 100.786 6.95622 101.015C6.95622 101.188 6.89819 101.36 6.78213 101.417C6.66607 101.532 6.43395 101.532 6.20183 101.532H5.79562V100.441Z" fill="white"/>
<path d="M11.1344 99.6953C10.6702 99.6953 10.322 99.9249 10.0318 100.327C9.74167 100.728 9.62561 101.245 9.62561 101.876C9.62561 102.508 9.74167 103.024 10.0318 103.426C10.322 103.828 10.6702 104.057 11.1344 104.057C11.5986 104.057 11.9468 103.828 12.237 103.426C12.5271 103.024 12.6432 102.508 12.6432 101.876C12.6432 101.245 12.5271 100.728 12.237 100.327C11.9468 99.9249 11.5406 99.6953 11.1344 99.6953ZM11.1344 103.311C10.9023 103.311 10.7282 103.196 10.6121 102.909C10.4961 102.622 10.38 102.278 10.38 101.819C10.38 101.36 10.438 100.958 10.6121 100.728C10.7282 100.499 10.9023 100.327 11.1344 100.327C11.3665 100.327 11.5406 100.441 11.6567 100.728C11.7727 101.015 11.8888 101.36 11.8888 101.819C11.8888 102.278 11.8308 102.622 11.6567 102.909C11.5406 103.196 11.3665 103.311 11.1344 103.311Z" fill="white"/>
<path d="M16.5892 102.393C16.5892 102.737 16.5312 102.967 16.4151 103.082C16.299 103.196 16.125 103.254 15.8928 103.254C15.6027 103.254 15.4286 103.196 15.3125 103.082C15.1965 102.967 15.1384 102.737 15.1384 102.335V99.6953H14.4421V102.163C14.4421 102.565 14.4421 102.795 14.5001 102.967C14.5581 103.139 14.6162 103.254 14.6742 103.369C14.7903 103.541 14.9643 103.656 15.1384 103.77C15.3125 103.885 15.5446 103.885 15.8348 103.885C16.3571 103.885 16.7053 103.77 16.9374 103.541C17.1695 103.311 17.2856 102.909 17.2856 102.45V99.6953H16.5892V102.393Z" fill="white"/>
<path d="M20.7674 99.8101H19.3166V103.943H20.013V102.278H20.8254C21.2316 102.278 21.5798 102.163 21.8119 101.934C22.044 101.704 22.1601 101.417 22.1601 101.015C22.1601 100.614 22.044 100.327 21.7539 100.097C21.5218 99.9248 21.1736 99.8101 20.7674 99.8101ZM20.013 100.441H20.6513C20.8834 100.441 21.1156 100.499 21.2316 100.614C21.3477 100.728 21.4057 100.843 21.4057 101.015C21.4057 101.245 21.3477 101.36 21.2316 101.417C21.1156 101.532 20.8834 101.532 20.5933 101.532H20.013V100.441Z" fill="white"/>
<path d="M29.1817 99.6953C28.7175 99.6953 28.3693 99.9249 28.0792 100.327C27.789 100.728 27.6729 101.245 27.6729 101.876C27.6729 102.508 27.789 103.024 28.0792 103.426C28.3693 103.828 28.7175 104.057 29.1817 104.057C29.646 104.057 29.9941 103.828 30.2843 103.426C30.5744 103.024 30.6905 102.508 30.6905 101.876C30.6905 101.245 30.5744 100.728 30.2843 100.327C29.9941 99.9249 29.646 99.6953 29.1817 99.6953ZM29.1817 103.311C28.9496 103.311 28.7755 103.196 28.6595 102.909C28.5434 102.622 28.4273 102.278 28.4273 101.819C28.4273 101.36 28.4854 100.958 28.6595 100.728C28.7755 100.499 28.9496 100.327 29.1817 100.327C29.4138 100.327 29.5879 100.441 29.704 100.728C29.8201 101.015 29.9361 101.36 29.9361 101.819C29.9361 102.278 29.8781 102.622 29.704 102.909C29.5879 103.196 29.4138 103.311 29.1817 103.311Z" fill="white"/>
<path d="M33.0117 103.943H33.7081V102.106H34.9847V101.417H33.7081V100.441H35.2169V99.8101H33.0117V103.943Z" fill="white"/>
<path d="M43.109 102.967C43.109 103.082 43.0509 103.196 42.9929 103.254C42.9349 103.311 42.8188 103.369 42.7028 103.369C42.4706 103.369 42.3546 103.254 42.2385 103.024C42.1224 102.795 42.0644 102.393 42.0644 101.876C42.0644 101.417 42.1224 101.015 42.2385 100.786C42.3546 100.556 42.4706 100.441 42.7028 100.441C42.8188 100.441 42.9349 100.499 42.9929 100.556C43.0509 100.614 43.109 100.728 43.109 100.843V100.901H43.8634V100.843C43.8053 100.556 43.6893 100.269 43.5152 100.097C43.3411 99.9248 43.0509 99.8101 42.7608 99.8101C42.2965 99.8101 41.9484 99.9822 41.7162 100.384C41.4841 100.728 41.31 101.245 41.31 101.876C41.31 102.565 41.4261 103.082 41.6582 103.483C41.8903 103.885 42.2965 104.057 42.7608 104.057C43.0509 104.057 43.3411 103.943 43.5152 103.77C43.6893 103.598 43.8634 103.311 43.8634 103.024V102.967H43.109Z" fill="white"/>
<path d="M47.2871 99.6953C46.8229 99.6953 46.4747 99.9249 46.1846 100.327C45.8944 100.728 45.7784 101.245 45.7784 101.876C45.7784 102.508 45.8944 103.024 46.1846 103.426C46.4747 103.828 46.8229 104.057 47.2871 104.057C47.7514 104.057 48.0996 103.828 48.3897 103.426C48.6799 103.024 48.7959 102.508 48.7959 101.876C48.7959 101.245 48.6799 100.728 48.3897 100.327C48.0996 99.9249 47.7514 99.6953 47.2871 99.6953ZM47.2871 103.311C47.055 103.311 46.8809 103.196 46.7649 102.909C46.6488 102.622 46.5327 102.278 46.5327 101.819C46.5327 101.36 46.5908 100.958 46.7649 100.728C46.8809 100.499 47.055 100.327 47.2871 100.327C47.5193 100.327 47.6933 100.441 47.8094 100.728C47.9255 101.015 48.0415 101.36 48.0415 101.819C48.0415 102.278 47.9835 102.622 47.8094 102.909C47.6933 103.196 47.5193 103.311 47.2871 103.311Z" fill="white"/>
<path d="M52.0456 101.36L51.5813 99.7527H50.5368V103.943H51.2332V100.901L51.7554 102.622H52.3357L52.8 100.901V103.943H53.5544V99.7527H52.4518L52.0456 101.36Z" fill="white"/>
<path d="M56.9201 99.8101H55.4694V103.943H56.1657V102.278H56.9781C57.3844 102.278 57.7325 102.163 57.9647 101.934C58.1968 101.704 58.3128 101.417 58.3128 101.015C58.3128 100.614 58.1968 100.327 57.9066 100.097C57.6745 99.9248 57.3263 99.8101 56.9201 99.8101ZM56.1657 100.441H56.8041C57.0362 100.441 57.2683 100.499 57.3844 100.614C57.5004 100.728 57.5584 100.843 57.5584 101.015C57.5584 101.245 57.5004 101.36 57.3844 101.417C57.2683 101.532 57.0362 101.532 56.746 101.532H56.1657V100.441Z" fill="white"/>
<path d="M61.9687 99.7527H61.0403L59.9377 103.943H60.634L60.9242 102.795H61.9687L62.2589 103.943H63.0133L61.9687 99.7527ZM61.8527 102.106H61.0983L61.4465 100.671L61.8527 102.106Z" fill="white"/>
<path d="M66.9593 102.508L65.6827 99.7527H64.8702V103.943H65.5666V101.13L66.9013 103.943H67.6557V99.7527H66.9593V102.508Z" fill="white"/>
<path d="M71.3696 100.441H72.008V99.8101H70.0349V100.441H70.6733V103.196H69.9189V103.885H72.124V103.196H71.3696V100.441Z" fill="white"/>
<path d="M75.2576 102.048H76.8825V101.417H75.2576V100.441H77.0566V99.8101H74.5032V103.885H77.1146V103.196H75.2576V102.048Z" fill="white"/>
<path d="M81.6409 102.106C81.4668 101.934 81.2347 101.704 80.8866 101.532L80.6544 101.417C80.4223 101.302 80.1902 101.188 80.1322 101.073C80.0741 100.958 80.0161 100.901 80.0161 100.786C80.0161 100.671 80.0741 100.556 80.1902 100.499C80.3062 100.384 80.4223 100.384 80.5964 100.384C80.7705 100.384 80.8866 100.441 81.0026 100.499C81.1187 100.556 81.1187 100.671 81.1767 100.843V100.901H81.9311V100.843C81.9311 100.499 81.757 100.212 81.5829 100.04C81.3508 99.8675 81.0606 99.7527 80.7125 99.7527C80.3062 99.7527 79.9581 99.8675 79.726 100.04C79.4938 100.269 79.3197 100.499 79.3197 100.843C79.3197 101.073 79.3778 101.302 79.5519 101.475C79.6679 101.647 79.9 101.819 80.1902 101.934L80.4803 102.048C80.8285 102.221 81.0606 102.335 81.1187 102.45C81.1767 102.565 81.2347 102.622 81.2347 102.795C81.2347 102.967 81.1767 103.082 81.0606 103.139C80.9446 103.254 80.7705 103.311 80.5964 103.311C80.4223 103.311 80.3062 103.254 80.2482 103.196C80.1322 103.082 80.1322 102.967 80.1322 102.795V102.68H79.3778V102.737C79.3778 103.139 79.4938 103.426 79.726 103.656C79.9581 103.885 80.2482 104 80.6544 104C81.0606 104 81.4088 103.885 81.699 103.713C81.9311 103.483 82.1052 103.196 82.1052 102.852C81.8731 102.508 81.757 102.278 81.6409 102.106Z" fill="white"/>
</g>
<defs>
<clipPath id="clip0_0_2880">
<rect width="185" height="104" fill="white" transform="translate(0.166687)"/>
</clipPath>
</defs>
</svg>
