<svg width="64" height="65" viewBox="0 0 64 65" fill="none" xmlns="http://www.w3.org/2000/svg">
<g clip-path="url(#clip0_0_2936)">
<path d="M-0.00393677 28.9111C0.282868 27.5737 0.777573 26.3645 1.78702 25.422C3.24359 24.0598 4.99323 23.9042 6.81926 24.0075C8.59269 24.1081 9.91524 25.0677 11.0023 26.4325C12.0406 27.7397 13.035 29.0771 14.0495 30.4013C14.2436 30.6536 14.4415 30.9033 14.6845 31.2132C14.826 30.9517 14.935 30.7582 15.0439 30.5595C16.24 28.2731 17.4511 25.9932 18.6233 23.6924C19.0103 22.9316 19.5338 22.5616 20.3667 22.6087C21.0906 22.6492 21.8183 22.6179 22.6536 22.6179C22.6536 22.1708 22.6474 21.7681 22.6536 21.3655C22.7137 17.7614 24.908 14.9677 28.2156 14.3755C28.9671 14.2448 29.7511 14.2801 30.5201 14.2709C31.8539 14.2566 33.1877 14.2539 34.5203 14.2709C38.4567 14.3193 41.2634 17.2411 41.336 21.3563C41.336 21.7485 41.336 22.1407 41.336 22.6179C42.13 22.6179 42.874 22.6492 43.6142 22.6087C44.4458 22.563 44.9743 22.9225 45.3675 23.6846C46.5411 25.9841 47.7534 28.26 48.952 30.5491C49.0584 30.753 49.1712 30.953 49.3189 31.2249C50.2031 30.0588 51.011 28.9267 51.8877 27.8574C52.6842 26.8874 53.482 25.8965 54.4113 25.0742C55.7626 23.8833 57.4334 23.9225 59.1054 24.0454C61.3347 24.2088 63.306 25.9723 63.7969 28.1672C63.9199 28.6934 63.9863 29.2323 63.9948 29.7739C64.0082 35.6226 64.0107 41.4713 64.0023 47.32C64.0023 48.3658 63.5364 48.9776 62.7499 49.0195C62.4246 49.0461 62.1019 48.941 61.8487 48.7262C61.5955 48.5113 61.4312 48.203 61.3898 47.8652C61.3582 47.5845 61.3461 47.3018 61.3535 47.0194C61.3535 41.3449 61.3535 35.6701 61.3535 29.9948C61.3535 28.345 60.6809 27.1972 59.3796 26.9109C57.6789 26.5397 56.1221 26.7109 54.9348 28.3123C53.1288 30.7543 51.2276 33.1165 49.4066 35.552C48.8793 36.2553 48.2894 36.552 47.4365 36.5272C45.6456 36.4775 43.8534 36.5115 42.0624 36.5128C40.3453 36.5128 39.9859 36.8946 39.9997 38.7103C39.9997 38.8816 39.9997 39.0529 39.9997 39.3143H40.6434C43.9974 39.3143 47.3514 39.3052 50.7054 39.3248C50.8987 39.34 51.0925 39.3007 51.2663 39.211C51.4401 39.1213 51.5877 38.9845 51.6935 38.8149C52.6955 37.3769 53.7074 35.9389 54.7795 34.548C55.0625 34.182 55.566 33.8408 55.9931 33.8055C56.355 33.7702 56.8435 34.1231 57.1065 34.4513C57.4722 34.9036 57.3632 35.4905 57.0426 35.9703C56.5917 36.6462 56.1046 37.2998 55.6311 37.96L54.003 40.2215C54.3537 40.9 54.6968 41.568 55.045 42.2347C56.9662 45.9147 58.8787 49.5999 60.8199 53.2694C61.1844 53.9596 61.391 54.6486 61.3434 55.4382C61.3084 56.0238 61.3535 56.6147 61.3322 57.1991C61.2908 58.2632 60.7798 58.7782 59.7529 58.7861C58.1247 58.7979 56.5041 58.7861 54.8784 58.7952C54.8019 58.8065 54.7262 58.8231 54.6518 58.8449V59.6986C54.6518 60.6555 54.6518 61.6124 54.6518 62.5746C54.6518 63.7053 54.1733 64.3381 53.3355 64.3459C52.4976 64.3537 51.9991 63.7001 51.9966 62.5915C51.9966 61.3549 51.9966 60.1182 51.9966 58.8384H11.9993C11.9993 60.1456 12.0055 61.4398 11.9993 62.738C11.9993 63.5093 11.6736 64.057 11.1376 64.2583C10.9421 64.3381 10.731 64.3671 10.5224 64.343C10.3138 64.3188 10.1139 64.2422 9.93984 64.1197C9.76583 63.9972 9.62288 63.8324 9.52327 63.6396C9.42366 63.4468 9.37035 63.2316 9.36793 63.0125C9.31909 61.8634 9.34915 60.7091 9.34414 59.5574V58.7939H4.59997C3.07326 58.7939 2.74012 58.3612 2.63617 56.7977C2.51969 55.0525 2.94426 53.5531 3.83098 52.0693C5.27001 49.6561 6.55374 47.1409 7.90886 44.6715C8.03743 44.4216 8.18929 44.1856 8.36224 43.9669C8.55813 43.7295 8.82679 43.5704 9.12246 43.5166C9.41813 43.4628 9.72252 43.5177 9.98379 43.6718C10.2451 43.826 10.4471 44.0699 10.5554 44.3621C10.6637 44.6543 10.6716 44.9766 10.5778 45.2741C10.4788 45.5593 10.353 45.8334 10.202 46.0925C8.67534 48.8835 7.13487 51.6667 5.63196 54.4734C5.40778 54.8917 5.38148 55.4238 5.23995 55.9781H58.7422C58.6169 55.4356 58.6082 54.9022 58.3927 54.4826C56.3563 50.5215 54.2785 46.5827 52.2371 42.6256C52.0154 42.1955 51.7662 42.0753 51.3178 42.0766C47.2562 42.0962 43.1933 42.0883 39.1317 42.0883C37.7754 42.0883 37.3458 41.6347 37.342 40.2072C37.342 39.4908 37.3295 38.7692 37.342 38.0554C37.3996 35.4657 39.0641 33.7558 41.5489 33.7414C43.3023 33.731 45.0482 33.7414 46.7978 33.7414H47.5104C47.394 33.4617 47.3364 33.2891 47.2524 33.1296C45.9925 30.702 44.72 28.2796 43.4689 25.856C43.2885 25.5069 43.0932 25.3605 42.6986 25.3775C41.8457 25.4115 40.9903 25.3932 40.1374 25.3853C39.1843 25.3775 38.6433 24.7932 38.6433 23.7905C38.6433 22.8754 38.6759 21.9603 38.6358 21.0517C38.5368 18.8555 37.0076 17.1679 34.9086 17.0724C32.9748 16.9848 31.0261 16.9848 29.0986 17.0724C26.9995 17.1665 25.4666 18.8542 25.3614 21.0452C25.3363 21.5394 25.3614 22.0361 25.3614 22.6139H26.0777C28.7654 22.6139 31.4527 22.6139 34.1396 22.6139C34.3907 22.6071 34.6419 22.6202 34.891 22.6532C35.1813 22.7012 35.4476 22.8499 35.6471 23.0752C35.8466 23.3004 35.9676 23.5892 35.9907 23.8951C36.0111 24.2023 35.9304 24.5076 35.7618 24.7603C35.5933 25.0131 35.347 25.1981 35.0639 25.2847C34.7822 25.3578 34.4924 25.3913 34.2022 25.384C29.9314 25.384 25.6607 25.3971 21.3912 25.3749C20.9265 25.3749 20.6998 25.5305 20.4857 25.9475C19.2834 28.3045 18.046 30.6432 16.8223 32.9858C16.7171 33.1871 16.627 33.3963 16.4679 33.7349H17.1793C18.9089 33.7349 20.6372 33.7349 22.3668 33.7349C24.9631 33.7427 26.6251 35.4579 26.6551 38.1626C26.6651 38.9666 26.6726 39.7718 26.6551 40.5758C26.6276 41.5354 26.1266 42.0753 25.2036 42.0779C20.8288 42.0909 16.4541 42.1001 12.0807 42.0543C11.6711 42.0543 11.1414 41.7432 10.8809 41.4007C9.57333 39.683 8.32968 37.9103 7.07851 36.1468C6.51366 35.3494 6.59132 34.4918 7.23381 34.012C7.8763 33.5323 8.64028 33.7061 9.22892 34.5153C10.286 35.9703 11.3205 37.4423 12.3925 38.8855C12.5453 39.0908 12.8497 39.2908 13.0851 39.2921C16.5844 39.3169 20.0849 39.3104 23.5842 39.3078C23.7094 39.3078 23.8246 39.2842 23.9812 39.2686C23.9812 38.7456 24.0288 38.2437 23.9699 37.7573C23.8697 36.9233 23.3199 36.5154 22.3418 36.5115C20.4043 36.5024 18.4655 36.4762 16.5293 36.5233C15.6977 36.5429 15.1266 36.2501 14.6143 35.5664C12.8046 33.1531 10.9084 30.8105 9.12747 28.3764C7.94894 26.7724 6.41097 26.5619 4.71394 26.8769C3.46152 27.1109 2.68627 28.2692 2.66247 29.7712C2.64243 30.9674 2.66247 32.1635 2.66247 33.3597C2.66247 37.9247 2.66247 42.4905 2.66247 47.0573C2.66788 47.3191 2.65743 47.5811 2.63116 47.8416C2.61055 48.1158 2.50469 48.3754 2.3297 48.5809C2.15471 48.7864 1.92017 48.9267 1.66178 48.9803C1.3989 49.0635 1.11693 49.0527 0.86057 48.9497C0.604205 48.8467 0.388112 48.6573 0.246548 48.4116C0.155121 48.2704 0.0837324 48.1148 0.00357746 47.9658L-0.00393677 28.9111Z" fill="#C79A53"/>
<path d="M-0.00393677 13.3847C0.292887 12.016 0.78509 10.7701 1.6718 9.66418C4.15035 6.58295 9.05483 6.51628 11.5659 9.57529C13.9643 12.5023 13.9355 16.1456 11.492 19.0321C9.02227 21.9499 4.228 21.8898 1.76073 18.951C0.841447 17.8542 0.329207 16.5888 -0.00393677 15.207V13.3847ZM6.68024 10.0969C4.47598 10.0877 2.64744 11.9885 2.66497 14.2684C2.67921 15.366 3.10301 16.4145 3.84627 17.191C4.58953 17.9676 5.59365 18.4109 6.64517 18.4268C8.82814 18.449 10.6529 16.5404 10.6454 14.2435C10.6438 13.1463 10.2262 12.0944 9.484 11.3175C8.74177 10.5405 7.73515 10.1017 6.68399 10.0969H6.68024Z" fill="#C79A53"/>
<path d="M63.995 14.301C63.9749 16.1459 63.2566 17.9076 61.9969 19.2019C60.7372 20.4962 59.0383 21.218 57.2708 21.21C53.6475 21.1825 50.6467 18.0189 50.6592 14.2409C50.6717 10.4302 53.7277 7.26269 57.3597 7.29145C59.1275 7.3111 60.8164 8.05855 62.059 9.37124C63.3017 10.6839 63.9974 12.4557 63.995 14.301ZM53.3494 14.2657C53.3546 15.3635 53.773 16.4151 54.5143 17.1938C55.2556 17.9724 56.2605 18.4157 57.3121 18.4281C59.4838 18.4503 61.3424 16.5155 61.3298 14.2448C61.3199 13.136 60.8887 12.0767 60.1308 11.2996C59.373 10.5226 58.3506 10.0914 57.2883 10.1008C56.2376 10.1104 55.2333 10.5541 54.4952 11.3346C53.757 12.1151 53.3451 13.169 53.3494 14.2657Z" fill="#C79A53"/>
<path d="M31.9931 11.4512C29.0725 11.4512 26.659 8.9282 26.6678 5.89534C26.6766 2.86247 29.1025 0.335517 32.0056 0.342054C34.9087 0.34859 37.3397 2.88469 37.3309 5.90841C37.3194 7.37971 36.7524 8.78691 35.7531 9.82461C34.7538 10.8623 33.4027 11.4468 31.9931 11.4512ZM34.6495 5.89926C34.6495 5.16399 34.3698 4.4588 33.872 3.93865C33.3741 3.41849 32.6988 3.12592 31.9944 3.12523C31.2901 3.12869 30.6159 3.42396 30.1201 3.94611C29.6243 4.46827 29.3475 5.17457 29.3505 5.90972C29.3518 6.64421 29.6318 7.34826 30.1291 7.86788C30.6264 8.38749 31.3007 8.68036 32.0044 8.68243C32.7082 8.6776 33.3815 8.38211 33.8772 7.86058C34.3728 7.33904 34.6505 6.63388 34.6495 5.89926Z" fill="#C79A53"/>
<path d="M33.2969 48.9974H30.6931V46.2979H33.2969V48.9974Z" fill="#C79A53"/>
<path d="M25.3703 48.9921V46.3201H27.9653V48.996L25.3703 48.9921Z" fill="#C79A53"/>
<path d="M38.6147 49.0091H36.0485V46.2979H38.6147V49.0091Z" fill="#C79A53"/>
</g>
<defs>
<clipPath id="clip0_0_2936">
<rect width="64" height="64" fill="white" transform="translate(0 0.342041)"/>
</clipPath>
</defs>
</svg>
