<svg width="64" height="65" viewBox="0 0 64 65" fill="none" xmlns="http://www.w3.org/2000/svg">
<g clip-path="url(#clip0_0_2949)">
<path d="M35.4012 37.2089C35.5686 37.989 35.9887 38.6921 36.5964 39.2091C36.7185 39.2984 36.8673 39.3436 37.0185 39.3373C39.5514 39.3373 42.0842 39.3373 44.6171 39.3373C44.6563 39.3373 44.6954 39.3053 44.7952 39.2607V38.5661C44.7952 35.7163 44.7952 32.8724 44.7952 30.0344C44.7952 29.0388 45.1621 28.679 46.1703 28.6772H60.5017C61.4956 28.6772 61.8572 29.0459 61.859 30.0522C61.859 33.1176 61.859 36.1812 61.859 39.3427C62.1689 39.3427 62.4468 39.3427 62.7247 39.3427C63.5957 39.3587 63.984 39.7363 63.9893 40.6073C63.9893 42.3403 63.9893 44.0734 63.9893 45.8064V63.4059C63.9893 64.6278 63.6776 64.9377 62.4539 64.9395C61.2997 64.9395 60.1384 64.9395 58.9877 64.9395C57.944 64.9395 57.5913 64.5832 57.5913 63.5395C57.5913 57.8719 57.5913 52.2055 57.5913 46.5403V45.7815H6.39982V63.1227C6.39982 64.7435 6.20033 64.9413 4.54917 64.9413H1.54964C0.293899 64.9413 0 64.6402 0 63.356V34.5585C0 33.2298 0.25649 32.9715 1.58526 32.9413C1.69391 32.9413 1.80257 32.9288 1.95931 32.9181C1.75827 31.4188 1.2534 29.9764 0.475581 28.679C0.363366 28.4866 0.233334 28.3049 0.13715 28.1055C0.0104849 27.868 -0.0205964 27.5911 0.05027 27.3315C0.121136 27.0719 0.288589 26.8492 0.518327 26.709C0.62991 26.6336 0.755617 26.5815 0.887873 26.556C1.02013 26.5304 1.15619 26.5319 1.28785 26.5604C1.41951 26.5888 1.54404 26.6437 1.65393 26.7216C1.76383 26.7995 1.8568 26.8988 1.92725 27.0136C2.39927 27.7866 2.79469 28.6166 3.21505 29.4128C3.3148 29.6052 3.39317 29.81 3.45195 29.9472C4.1769 29.265 4.85731 28.565 5.60185 27.9452C6.21814 27.434 6.84868 27.5052 7.24767 28.0182C7.64666 28.5311 7.51307 29.167 6.84156 29.6657C5.75137 30.4451 4.95221 31.5658 4.57054 32.8504C4.6311 32.886 4.66672 32.927 4.70056 32.9252C6.11127 32.8362 6.45504 33.3616 6.41229 34.7064C6.36242 36.215 6.39982 37.7343 6.39982 39.2875H11.69V38.331C11.2946 38.2997 10.9015 38.245 10.5126 38.1671C9.89423 38.0066 9.35498 37.6275 8.99473 37.0999C8.63448 36.5723 8.47765 35.9321 8.55328 35.2977C8.70646 34.0188 9.76628 32.9822 11.063 32.9573C13.3946 32.9199 15.7279 32.9359 18.0613 32.9573C18.8183 32.9573 19.1977 33.3937 19.203 34.2041C19.203 35.889 19.203 37.574 19.203 39.3462H19.9511C22.0886 39.3462 24.226 39.2892 26.3509 39.373C27.2291 39.4068 27.7278 39.0506 28.1161 38.3791C28.3103 38.0407 28.4617 37.6773 28.6861 37.2124H22.7832C21.6824 37.2124 21.3351 36.8722 21.3333 35.7875C21.3333 31.7431 21.3333 27.6988 21.3333 23.6544C21.3333 22.6213 21.6896 22.2722 22.7476 22.2722H41.215C42.3371 22.2722 42.6649 22.6089 42.6649 23.7541C42.6649 27.7308 42.6649 31.7087 42.6649 35.6878C42.6649 36.8972 42.3496 37.2053 41.1152 37.2053L35.4012 37.2089ZM23.4975 35.0305H40.4794V24.4452H23.4975V35.0305ZM61.8376 41.5246H2.16771V43.5729H61.8376V41.5246ZM46.9576 39.291H59.6966V30.8502H46.9576V39.291ZM2.18018 45.7726V62.7504H4.23389V45.7726H2.18018ZM61.818 62.7772V45.7975H59.7643V62.7772H61.818ZM17.0335 35.1196H13.9164V39.3106H17.0335V35.1196ZM4.21964 39.3124V35.1303H2.16949V39.3124H4.21964ZM30.8983 37.2356C30.6454 37.948 30.4014 38.6178 30.1609 39.2892H33.8444C33.5861 38.5768 33.3475 37.9231 33.0981 37.2356H30.8983ZM11.7078 34.945C11.3754 35.0632 11.0551 35.2129 10.7513 35.3921C10.6747 35.4473 10.705 35.8499 10.8011 35.9069C11.0505 36.0618 11.3622 36.1135 11.7078 36.2239V34.945Z" fill="#C79A53"/>
<path d="M57.6269 3.08225V5.21962C57.9315 5.21962 58.2129 5.21962 58.4926 5.21962C59.3261 5.23743 59.7216 5.6186 59.7394 6.44327C59.7519 7.46564 59.7643 8.48802 59.7394 9.50861C59.7284 9.70451 59.7625 9.90031 59.8391 10.081C59.9157 10.2616 60.0327 10.4223 60.1811 10.5506C61.2783 11.6317 62.3649 12.7378 63.471 13.8332C63.8539 14.2144 64.1443 14.6169 63.9163 15.1869C63.6883 15.7569 63.186 15.8994 62.6107 15.8815C61.6809 15.8655 60.7511 15.8815 59.7287 15.8815C59.7287 16.2876 59.7394 16.6563 59.7287 17.025C59.7066 17.8558 59.3627 18.6456 58.7695 19.2277C58.1764 19.8099 57.3804 20.139 56.5493 20.1456C55.7078 20.1457 54.9001 19.815 54.3003 19.2249C53.7005 18.6348 53.3567 17.8325 53.3431 16.9912C53.3431 16.635 53.3431 16.2912 53.3431 15.8815C52.3261 15.8815 51.3838 15.8709 50.4273 15.8815C49.8769 15.8815 49.4085 15.7729 49.168 15.2172C48.9276 14.6615 49.1912 14.2429 49.5795 13.8582C50.7016 12.7485 51.8291 11.646 52.9139 10.5025C53.1526 10.2338 53.296 9.89384 53.3218 9.53533C53.3752 8.5842 53.3396 7.62594 53.3414 6.67125C53.3414 5.54201 53.6691 5.21962 54.8144 5.2125H55.436V3.1339H33.1124V5.21962C33.3991 5.21962 33.6788 5.21962 33.9602 5.21962C34.792 5.23921 35.1857 5.6186 35.1964 6.44683C35.2088 7.44605 35.2284 8.44705 35.1874 9.44449C35.1735 9.66216 35.2108 9.88007 35.2961 10.0808C35.3815 10.2815 35.5126 10.4595 35.6791 10.6005C36.7834 11.6691 37.8521 12.7628 38.9404 13.8421C39.3234 14.2233 39.6119 14.6276 39.3822 15.1976C39.1524 15.7675 38.6501 15.8994 38.0748 15.8887C37.145 15.8726 36.2152 15.8887 35.1981 15.8887C35.1981 16.2449 35.1981 16.578 35.1981 16.9021C35.1679 18.7367 33.7856 20.1456 32.0116 20.1527C30.2375 20.1598 28.8339 18.7492 28.8054 16.9271C28.8054 16.6171 28.8054 16.3072 28.8054 15.8887C27.7777 15.8887 26.766 15.8887 25.756 15.8887C25.1771 15.8887 24.6873 15.666 24.6143 15.0978C24.5935 14.6714 24.7384 14.2533 25.0186 13.9312C26.123 12.7449 27.3057 11.6317 28.4296 10.4615C28.6399 10.2246 28.7652 9.92443 28.7858 9.60836C28.8304 8.63229 28.8019 7.6491 28.8037 6.6766C28.8037 5.55091 29.1332 5.22853 30.2785 5.2214H30.9357V3.14103H8.58001V5.21962C8.88993 5.21962 9.19452 5.21962 9.49732 5.21962C10.2454 5.24634 10.6498 5.63463 10.6622 6.38093C10.6783 7.4033 10.6961 8.42568 10.6622 9.44627C10.6486 9.66399 10.6863 9.88186 10.7723 10.0823C10.8583 10.2828 10.9902 10.4603 11.1574 10.6005C12.2599 11.6691 13.3287 12.7645 14.417 13.8439C14.8017 14.2233 15.0867 14.6294 14.8569 15.1976C14.6272 15.7658 14.1213 15.8976 13.546 15.8869C12.618 15.8709 11.6882 15.8869 10.6729 15.8869C10.6729 16.2752 10.6729 16.6225 10.6729 16.9698C10.6664 17.8124 10.3284 18.6185 9.73204 19.2139C9.13571 19.8092 8.32897 20.1458 7.48635 20.1509C6.64369 20.151 5.83487 19.8194 5.23486 19.2277C4.63486 18.636 4.29191 17.832 4.28021 16.9894C4.2713 16.6563 4.28021 16.3233 4.28021 15.8869C3.33796 15.8869 2.4153 15.8744 1.49264 15.8869C0.908412 15.8869 0.368709 15.8441 0.105093 15.2172C-0.158523 14.5902 0.20662 14.1716 0.616294 13.7655C1.72241 12.6719 2.83032 11.5801 3.90616 10.4562C4.11679 10.2188 4.24217 9.91793 4.26239 9.60123C4.30692 8.64832 4.27843 7.69185 4.28021 6.73715C4.28021 5.54023 4.58835 5.22496 5.75859 5.21784H6.37667V3.08047H4.62042C3.53211 3.08047 2.4438 3.08047 1.35549 3.08047C0.509422 3.08047 0.0249411 2.68684 0.0178164 2.02425C0.0106916 1.36167 0.50052 0.955566 1.33768 0.955566C4.89175 0.955566 8.44641 0.955566 12.0017 0.955566H62.3755C63.4781 0.955566 63.9786 1.27795 63.9929 1.99932C64.0071 2.72068 63.4888 3.08937 62.3524 3.08937L57.6269 3.08225ZM11.1877 13.7068C10.0994 12.46 9.12683 11.1597 7.21561 11.5997C6.87897 11.678 6.50314 11.5997 6.1469 11.6157C5.99569 11.5987 5.84298 11.6299 5.7105 11.7048C5.04078 12.3282 4.39242 12.9747 3.64076 13.7068H11.1877ZM60.3486 13.7068C59.6361 12.9943 59.0376 12.403 58.4338 11.8134C58.3489 11.714 58.2338 11.6451 58.106 11.6175C57.0623 11.6032 56.0185 11.6068 54.9747 11.6175C54.8874 11.6258 54.806 11.665 54.7449 11.7279C54.1019 12.3531 53.466 12.9747 52.7286 13.7103L60.3486 13.7068ZM35.8483 13.7068C35.1126 12.9943 34.5106 12.3976 33.9032 11.8134C33.8136 11.7181 33.6955 11.6543 33.5666 11.6317C32.5228 11.6175 31.479 11.621 30.4352 11.6317C30.3477 11.6398 30.2658 11.6782 30.2037 11.7404C29.5624 12.3673 28.9266 12.9997 28.1945 13.7264L35.8483 13.7068ZM6.43367 7.37302V9.43915H8.48916V7.37302H6.43367ZM30.9749 7.35699V9.43024H33.0126V7.35699H30.9749ZM55.477 9.43737H57.5521V7.39796H55.477V9.43737ZM55.4895 15.9065C55.5073 16.6047 55.233 17.3741 55.9668 17.7909C56.1467 17.8749 56.3428 17.9185 56.5413 17.9185C56.7398 17.9185 56.9358 17.8749 57.1157 17.7909C57.8442 17.3688 57.5735 16.6047 57.5877 15.91L55.4895 15.9065ZM30.9518 15.9065C30.966 16.6011 30.6917 17.367 31.4238 17.7874C31.6037 17.871 31.7998 17.9144 31.9982 17.9144C32.1967 17.9144 32.3927 17.871 32.5727 17.7874C33.3047 17.3688 33.034 16.6029 33.0482 15.9065H30.9518ZM6.40695 15.9065C6.44257 16.6563 6.1558 17.4614 6.97693 17.8497C7.15357 17.9171 7.34262 17.9458 7.53131 17.9338C7.71999 17.9218 7.9039 17.8695 8.07058 17.7802C8.76703 17.3296 8.5141 16.5887 8.49629 15.9065H6.40695Z" fill="#C79A53"/>
<path d="M45.871 54.3149C44.3036 54.1368 43.1992 53.4012 42.7842 51.8623C42.2606 49.9226 43.6909 47.9438 45.7054 47.8921C47.9479 47.8387 50.1922 47.8494 52.433 47.8921C53.9986 47.9206 55.2829 49.1906 55.461 50.742C55.5359 51.4997 55.3387 52.2594 54.9046 52.885C54.4706 53.5106 53.828 53.9613 53.092 54.1564C52.8391 54.2223 52.579 54.2651 52.2815 54.3345C52.2815 56.3793 52.1907 58.4312 52.3243 60.4545C52.3848 61.3968 52.8889 62.3105 53.19 63.2367C53.5462 64.357 53.1241 64.9448 51.9431 64.9466C50.0123 64.9466 48.0797 64.9466 46.1489 64.9466C45.0517 64.9466 44.5458 64.3107 44.9644 63.3079C45.7784 61.3487 46.0064 59.3449 45.8888 57.252C45.8212 56.2813 45.871 55.3052 45.871 54.3149ZM48.0085 54.3149C48.0085 55.2251 48.0245 56.0961 48.0085 56.9492C47.9657 58.8658 48.2756 60.8197 47.4314 62.6489C47.4189 62.6792 47.4492 62.729 47.4634 62.7825H50.7889C49.5902 60.0199 50.4327 57.1363 50.0764 54.3078L48.0085 54.3149ZM49.0772 52.1491C50.0764 52.1491 51.0757 52.1491 52.0749 52.1491C52.8587 52.1491 53.3378 51.7287 53.3378 51.0804C53.3378 50.432 52.8587 50.0117 52.0749 50.0117C50.0741 50.0046 48.0744 50.0046 46.0759 50.0117C45.2886 50.0117 44.8148 50.4267 44.8148 51.0804C44.8148 51.7341 45.2921 52.1384 46.0776 52.1491C47.0662 52.1473 48.0655 52.1419 49.0665 52.1419L49.0772 52.1491Z" fill="#C79A53"/>
<path d="M35.2052 54.3274C35.2052 56.3722 35.1126 58.4241 35.2462 60.4475C35.3086 61.3897 35.8126 62.3034 36.1119 63.2296C36.4681 64.3499 36.0478 64.9377 34.865 64.9395C32.9325 64.9395 31.0016 64.9395 29.0708 64.9395C27.9736 64.9395 27.4678 64.3036 27.8863 63.3008C28.7003 61.3416 28.9283 59.3378 28.8108 57.245C28.7555 56.2742 28.8019 55.2982 28.8019 54.3079C27.2326 54.1297 26.1301 53.3941 25.7151 51.8552C25.1807 49.9156 26.6217 47.9367 28.6362 47.8851C30.8787 47.8316 33.1213 47.8423 35.3638 47.8851C36.9277 47.9136 38.2137 49.1835 38.3918 50.7349C38.4666 51.4929 38.2692 52.2527 37.8348 52.8784C37.4004 53.504 36.7574 53.9546 36.021 54.1493C35.761 54.2224 35.5027 54.2651 35.2052 54.3274ZM33.718 62.7914C32.5139 59.9986 33.3493 57.1132 33.0055 54.3257H30.9322C30.9322 55.5725 30.9322 56.7694 30.9322 57.9681C30.9446 59.5408 31.0497 61.1225 30.3622 62.6098C30.3408 62.6543 30.3747 62.7238 30.3853 62.7879L33.718 62.7914ZM32.0205 52.142C33.0197 52.142 34.0208 52.142 35.02 52.142C35.793 52.142 36.2668 51.702 36.2668 51.0573C36.2668 50.4125 35.7913 50.0189 35.0503 50.0153C33.0316 50.0058 31.01 50.0058 28.9853 50.0153C28.2105 50.0153 27.7385 50.4499 27.7385 51.1C27.751 51.7234 28.2159 52.1349 28.9551 52.142C29.9757 52.1491 30.9981 52.142 32.0205 52.142Z" fill="#C79A53"/>
<path d="M18.1361 54.3043C18.1361 56.3633 18.047 58.3867 18.1753 60.3958C18.2341 61.3166 18.7096 62.2125 19.0071 63.1174C19.4185 64.3749 19.0249 64.9395 17.7175 64.9413C15.8294 64.9413 13.942 64.9413 12.0551 64.9413C10.8795 64.9413 10.3523 64.2965 10.8439 63.2278C12.1762 60.3406 11.5991 57.3073 11.7345 54.3346C9.73421 53.9694 8.61384 52.8758 8.52834 51.2639C8.50189 50.8301 8.56435 50.3955 8.71189 49.9867C8.85942 49.578 9.08892 49.2037 9.3863 48.8868C9.68369 48.5699 10.0427 48.3171 10.4413 48.1439C10.8399 47.9707 11.2696 47.8808 11.7042 47.8797C13.8131 47.8565 15.9239 47.8654 18.0328 47.8797C19.773 47.8797 21.141 49.1033 21.3084 50.758C21.4758 52.4127 20.3359 53.9053 18.601 54.2419C18.4816 54.2651 18.3481 54.2758 18.1361 54.3043ZM13.2129 62.7772H16.6898C15.9773 61.4128 15.9613 60.0022 15.9933 58.5755C16.0254 57.1488 15.9933 55.747 15.9933 54.3185H13.8559C13.8559 54.6926 13.8737 55.031 13.8559 55.3516C13.7116 57.8113 14.3154 60.3299 13.2129 62.7772ZM14.9567 50.0082C13.936 50.0082 12.9136 50.0082 11.8912 50.0082C11.1503 50.0082 10.6872 50.4214 10.6729 51.0466C10.6587 51.6717 11.1378 52.1331 11.909 52.1348C13.9277 52.1443 15.9464 52.1443 17.9651 52.1348C18.7079 52.1348 19.171 51.7198 19.1852 51.0947C19.1995 50.4695 18.7203 50.0153 17.9384 50.0082C16.9569 50.001 15.9577 50.0082 14.9567 50.0082Z" fill="#C79A53"/>
<path d="M32.0205 32.9395C31.5985 32.9409 31.1805 32.859 30.7903 32.6985C30.4 32.538 30.0453 32.3021 29.7465 32.0042C29.4476 31.7064 29.2105 31.3525 29.0487 30.9628C28.8869 30.5731 28.8036 30.1554 28.8036 29.7334C28.8265 28.8987 29.1751 28.106 29.7749 27.5249C30.3746 26.9438 31.178 26.6204 32.0131 26.6239C32.8481 26.6274 33.6487 26.9575 34.2436 27.5436C34.8385 28.1297 35.1804 28.9252 35.1963 29.7601C35.1894 30.6006 34.8527 31.4047 34.2587 31.9993C33.6647 32.594 32.8609 32.9316 32.0205 32.9395ZM32.0205 28.679C31.808 28.6733 31.5986 28.7312 31.4192 28.8451C31.2397 28.959 31.0983 29.1239 31.013 29.3186C30.9278 29.5133 30.9025 29.729 30.9404 29.9381C30.9784 30.1473 31.0779 30.3404 31.2261 30.4927C31.3744 30.645 31.5647 30.7497 31.7728 30.7933C31.9808 30.8369 32.1972 30.8174 32.3941 30.7374C32.5911 30.6575 32.7597 30.5206 32.8784 30.3443C32.9972 30.168 33.0606 29.9602 33.0607 29.7477C33.0608 29.4691 32.9521 29.2015 32.7578 29.0019C32.5635 28.8023 32.299 28.6864 32.0205 28.679Z" fill="#C79A53"/>
<path d="M54.3744 34.0634V36.101H52.3011V34.0634H54.3744Z" fill="#C79A53"/>
</g>
<defs>
<clipPath id="clip0_0_2949">
<rect width="64" height="64" fill="white" transform="translate(0 0.944824)"/>
</clipPath>
</defs>
</svg>
