<svg width="66" height="66" viewBox="0 0 66 66" fill="none" xmlns="http://www.w3.org/2000/svg">
<g clip-path="url(#clip0_0_2944)">
<path d="M64.5979 0.338596C65.2863 0.713397 65.5017 1.28493 65.5 2.06506C65.4763 8.62323 65.4864 15.1797 65.4864 21.7379C65.4864 23.0437 65.088 23.4338 63.7908 23.444H50.2983V28.525H50.9868C55.2825 28.525 59.5782 28.525 63.8739 28.525C65.0523 28.525 65.4915 28.9592 65.4932 30.1243V63.7665C65.5002 63.9363 65.4934 64.1065 65.4729 64.2752C65.4256 64.5758 65.2714 64.8492 65.0387 65.0452C64.8059 65.2412 64.5103 65.3466 64.2061 65.3421C63.9019 65.3376 63.6096 65.2234 63.3828 65.0205C63.1561 64.8177 63.0101 64.5398 62.9718 64.2379C62.9508 64.0062 62.9452 63.7734 62.9548 63.5409V38.7311H25.8858V39.4451C25.8858 47.4623 25.8858 55.4796 25.8858 63.4968C25.8858 63.7088 25.896 63.9208 25.8858 64.1311C25.8684 64.4515 25.7307 64.7535 25.5003 64.9767C25.2698 65.2 24.9636 65.328 24.6429 65.3352C24.4783 65.3386 24.3146 65.3094 24.1613 65.2494C24.0079 65.1894 23.8679 65.0997 23.7493 64.9855C23.6307 64.8713 23.5358 64.7347 23.47 64.5838C23.4043 64.4328 23.3689 64.2703 23.3661 64.1057C23.3355 63.2831 23.3661 62.4572 23.3661 61.5821H3.03841V63.6308C3.03841 64.6127 2.75863 65.1046 2.09393 65.2928C1.50045 65.4624 1.01379 65.2029 0.5 64.4448V29.4137C0.871351 28.7234 1.44279 28.4758 2.22449 28.5131C3.2792 28.5623 4.33899 28.525 5.39539 28.525H6.88757C6.28053 27.4209 6.16861 26.3406 6.20931 25.2281C6.23135 24.6159 6.18896 24.0002 6.22118 23.3897C6.24322 22.9929 6.10588 22.8165 5.73622 22.6469C4.60044 22.1469 3.58459 21.4099 2.75669 20.4854C1.9288 19.5608 1.30797 18.47 0.935788 17.286C0.749264 16.7298 0.644133 16.1464 0.501697 15.5765V14.1791C0.873048 13.4906 1.44449 13.2446 2.22619 13.2803C4.24573 13.3718 6.28561 13.075 8.29667 13.711C8.37128 13.3939 8.43572 13.131 8.49846 12.8631C9.07869 10.3838 10.3178 8.10741 12.0848 6.27436C12.8495 5.46879 13.5363 5.47388 14.3061 6.27436C15.4533 7.43608 16.3694 8.80523 17.0056 10.309C17.4448 11.3961 17.7788 12.5273 18.1722 13.6737C18.3758 13.6103 18.5846 13.5654 18.7962 13.5397C20.6717 13.4499 22.5454 13.3549 24.4225 13.3023C25.4127 13.2752 25.9282 13.8111 25.874 14.7947C25.679 18.346 24.0087 20.9645 20.8192 22.5587C20.2952 22.8216 20.1596 23.098 20.1596 23.6441C20.1596 25.2773 20.4139 26.9495 19.5203 28.4894H47.6684V23.4474H34.1827C32.8855 23.4474 32.4871 23.0437 32.4871 21.7362C32.4871 15.1797 32.4972 8.62323 32.4735 2.06336C32.4735 1.28323 32.6871 0.706613 33.3756 0.3369H43.6564C44.4093 0.84568 44.6738 1.3358 44.5043 1.93277C44.316 2.59588 43.826 2.87571 42.8425 2.87571C40.4686 2.87571 38.0997 2.87571 35.736 2.87571H35.0831V20.8746H62.9073V2.88249H54.819C54.2357 2.88249 53.7931 2.65524 53.5456 2.11254C53.4348 1.89138 53.3972 1.64069 53.4384 1.39676C53.4795 1.15284 53.5972 0.92835 53.7745 0.755796C53.9424 0.599603 54.124 0.458839 54.3171 0.335205L64.5979 0.338596ZM3.06894 36.099H62.8971V31.096H3.06894V36.099ZM3.06894 47.5228H23.2982V38.7125H3.06724L3.06894 47.5228ZM23.3033 58.9653V50.1566H3.07232V58.9653H23.3033ZM8.77825 23.4898C8.77825 24.4581 8.70025 25.4316 8.79859 26.3847C8.92068 27.5871 9.97538 28.486 11.1895 28.5148C12.5189 28.5453 13.8483 28.542 15.1777 28.5148C16.3121 28.4911 17.3414 27.755 17.4991 26.6425C17.6517 25.6012 17.5313 24.5226 17.5313 23.4423H8.9919C8.91944 23.4519 8.84795 23.4678 8.77825 23.4898ZM3.18255 15.7139C3.34337 16.5985 3.68995 17.439 4.19942 18.1797C4.70889 18.9205 5.36965 19.5448 6.13809 20.0114C7.89311 21.09 9.81939 20.9136 11.8016 20.8831C11.159 18.4478 9.74478 16.7366 7.33523 16.1176C6.02618 15.7851 4.62047 15.8411 3.18085 15.7139H3.18255ZM14.6537 20.8594C19.1812 21.3868 22.9218 19.1838 23.1321 15.8632C18.4249 15.4765 15.1573 17.4014 14.6537 20.8594ZM13.2073 17.3827C13.8415 16.7145 14.4689 15.97 15.1879 15.3306C15.5592 15.0016 15.666 14.7031 15.5847 14.2503C15.2844 12.4789 14.5889 10.7978 13.5499 9.33213C13.4464 9.18797 13.3175 9.06247 13.1751 8.89797C11.8943 10.5098 11.074 12.4386 10.8012 14.4793C10.7753 14.6966 10.8363 14.9154 10.9707 15.0881C11.6982 15.8767 12.4731 16.6416 13.2073 17.3844V17.3827Z" fill="#C79A53"/>
<path d="M49.3674 0.338623C49.4675 0.409852 49.5709 0.47769 49.6692 0.550615C50.161 0.910152 50.3763 1.38671 50.1779 1.97859C50.1089 2.24722 49.9479 2.48318 49.7231 2.64552C49.4982 2.80785 49.2236 2.8863 48.9469 2.86726C48.6802 2.87191 48.4197 2.78659 48.2075 2.62506C47.9952 2.46353 47.8435 2.2352 47.7769 1.97689C47.5904 1.38501 47.8023 0.910152 48.2958 0.550615C48.3941 0.47769 48.4976 0.409852 48.5976 0.338623H49.3674Z" fill="#C79A53"/>
<path d="M13.187 41.8584C13.4385 41.8575 13.6847 41.9315 13.8939 42.0712C14.1031 42.2108 14.266 42.4097 14.3617 42.6423C14.4574 42.875 14.4815 43.1309 14.431 43.3774C14.3806 43.6239 14.2578 43.8497 14.0783 44.026C13.8989 44.2023 13.671 44.3212 13.4237 44.3673C13.1764 44.4134 12.921 44.3847 12.6901 44.285C12.4592 44.1852 12.2632 44.0188 12.1273 43.8071C11.9914 43.5954 11.9217 43.348 11.9271 43.0964C11.938 42.7677 12.0748 42.4558 12.3094 42.2253C12.544 41.9948 12.8582 41.8635 13.187 41.8584Z" fill="#C79A53"/>
<path d="M14.457 54.5254C14.4618 54.7769 14.3914 55.0242 14.2549 55.2355C14.1184 55.4468 13.9221 55.6127 13.6909 55.7119C13.4597 55.811 13.2042 55.839 12.957 55.7922C12.7099 55.7454 12.4823 55.626 12.3033 55.4492C12.1244 55.2723 12.0022 55.0462 11.9524 54.7996C11.9026 54.553 11.9274 54.2971 12.0237 54.0647C12.12 53.8323 12.2834 53.6339 12.4931 53.4948C12.7027 53.3557 12.949 53.2823 13.2006 53.284C13.5293 53.2899 13.8432 53.4221 14.0771 53.6533C14.311 53.8844 14.4471 54.1967 14.457 54.5254Z" fill="#C79A53"/>
</g>
<defs>
<clipPath id="clip0_0_2944">
<rect width="65" height="65" fill="white" transform="translate(0.5 0.342041)"/>
</clipPath>
</defs>
</svg>
