<svg width="64" height="64" viewBox="0 0 64 64" fill="none" xmlns="http://www.w3.org/2000/svg">
<path d="M0 63.3031V31.9022C0.270578 31.3189 0.729889 31.1167 1.36458 31.1518C2.06942 31.1919 2.78094 31.1618 3.48912 31.1618H4.31422C3.83987 30.1992 3.30372 29.3234 2.96466 28.3774C2.34668 26.6459 2.32997 24.8192 2.36672 23.0024C2.37841 22.4375 2.74419 22.135 3.36886 22.1267C4.30586 22.1116 5.24453 22.1267 6.18154 22.1267H8.68688V20.4754C7.95031 20.4035 7.23712 20.4085 6.55901 20.2548C4.25075 19.7317 2.48531 17.7127 2.47194 15.6419C2.47194 14.5756 2.74086 14.2029 3.77306 13.882C5.29798 13.4074 6.73271 13.6196 8.09061 14.4402C8.27267 14.5489 8.45305 14.6625 8.66852 14.7946C8.79879 13.8352 8.69858 13.1399 8.00042 12.4196C5.97443 10.3305 6.27173 6.75382 8.50149 4.87024C9.26312 4.22845 9.81429 4.20171 10.6411 4.77999C13.133 6.51148 13.4638 10.4876 11.1956 12.6352C10.4807 13.3037 10.5976 13.9723 10.6377 14.8079C10.8799 14.6542 11.0469 14.5388 11.224 14.4386C12.6487 13.6263 14.1385 13.3355 15.7152 13.9372C16.6856 14.3115 16.9128 14.7277 16.8076 15.7756C16.5387 18.4314 14.1586 20.4854 11.4277 20.4253C11.1655 20.4253 10.9033 20.4253 10.6377 20.4253V22.1216H11.3509C12.7255 22.1216 14.1001 22.1216 15.4764 22.1216C16.2497 22.1216 16.5854 22.4559 16.5787 23.2314C16.5721 24.0069 16.5503 24.7757 16.4819 25.5428C16.3366 27.1958 16.0042 28.8003 15.0655 30.2226C14.8667 30.5234 14.6413 30.8058 14.4091 31.1267H35.5225V27.7841H23.3482C21.4675 27.7841 20.5088 26.8231 20.5088 24.9428V11.1728C20.5004 11.0058 20.5004 10.8384 20.5088 10.6714C20.5138 10.5516 20.5434 10.434 20.5956 10.3261C20.6478 10.2181 20.7216 10.122 20.8123 10.0437C20.9031 9.96538 21.009 9.90652 21.1234 9.87075C21.2378 9.83499 21.3583 9.82307 21.4775 9.83574C22.0705 9.85914 22.3728 10.2218 22.3744 10.9455C22.3744 13.9539 22.3744 16.9561 22.3744 19.9523V20.6208H47.787C48.1628 19.1985 48.4401 17.8046 48.9028 16.4742C49.8214 13.8302 51.3513 11.6274 53.7865 10.1115C54.934 9.39785 55.7323 9.84744 55.7006 11.1862C55.6355 14.0826 55.6806 16.9823 55.6806 19.8771V20.6141H58.4999C58.5116 20.4771 58.5283 20.3768 58.5283 20.2798C58.5283 14.4224 58.5283 8.56386 58.5283 2.7042C58.5283 2.02063 58.3613 1.88525 57.5846 1.88525H23.3365C22.5381 1.88525 22.3828 2.03902 22.3795 2.82621C22.3795 3.829 22.3795 4.8318 22.3795 5.83459C22.3795 6.37443 22.0771 6.70034 21.5443 6.75382C21.0115 6.8073 20.5622 6.5683 20.5422 6.04016C20.4743 4.68454 20.4888 3.32603 20.5856 1.97216C20.6741 0.942627 21.4959 0.401118 22.3778 0H58.5099C59.619 0.472985 60.4073 1.19165 60.4073 2.50699C60.4073 10.0959 60.4073 17.6848 60.4073 25.2738C60.4073 26.7546 59.3501 27.7674 57.8686 27.7807C57.1654 27.7807 56.4622 27.7807 55.7273 27.7807V31.1652H62.5085C63.7511 31.1652 63.9866 31.4058 63.9866 32.6694C63.9866 36.3184 63.9866 39.9669 63.9866 43.6149C63.9866 44.992 64.0167 46.3692 63.9666 47.743C63.9532 48.0907 63.7745 48.5536 63.5123 48.7458C62.8943 49.1954 62.0826 48.6706 62.0976 47.8283C62.1427 45.1826 62.1143 42.5335 62.1143 39.8861V39.226H55.7257C55.7257 39.5268 55.734 39.7758 55.7257 40.0232C55.6572 41.9369 55.7073 43.8672 55.4868 45.7609C55.1528 48.6623 53.5043 50.2952 50.5997 50.5458C48.3666 50.7381 46.1068 50.6378 43.8587 50.6679C43.5931 50.6679 43.3275 50.6679 43.0469 50.6679V62.1231H54.4546C54.6832 62.1164 54.9119 62.1248 55.1394 62.1482C55.6405 62.215 55.8643 62.5393 55.881 63.0072C55.8977 63.5086 55.6839 63.8613 55.1661 63.9532C54.9189 63.9886 54.6692 64.0032 54.4195 63.9967H29.7352C29.4852 64.002 29.2351 63.9897 28.9869 63.9599C28.5009 63.8914 28.267 63.5772 28.2436 63.1025C28.2119 62.4507 28.5777 62.1248 29.3878 62.1248C33.0534 62.1248 36.7201 62.1248 40.3879 62.1248C40.6268 62.1248 40.8639 62.1014 41.0844 62.088V54.2328H40.3662C39.4292 54.2328 38.4905 54.2428 37.5535 54.2328C36.8988 54.2211 36.5297 53.8701 36.5297 53.3069C36.5297 52.7436 36.8955 52.396 37.5519 52.3709C38.1348 52.3492 38.721 52.3626 39.3023 52.3626H41.0894V50.6679H29.5013C28.3121 50.6679 28.0248 50.372 28.0883 49.1637C28.2553 46.2288 29.675 44.138 32.3123 42.8761C34.1596 41.9937 36.1405 41.7848 38.1582 41.7831C43.1388 41.7831 48.1189 41.7831 53.0984 41.7831H53.8166V39.2076H20.7092V62.424C20.7092 62.6329 20.7192 62.8435 20.6992 63.049C20.6391 63.654 20.2866 63.9666 19.7154 63.9449C19.1442 63.9231 18.8603 63.6106 18.8469 63.0123C18.8252 62.0546 18.8386 61.0952 18.8369 60.1359V58.7153H1.89405V59.4223C1.89405 60.6106 1.90407 61.8005 1.89405 62.9872C1.89405 63.6691 1.42972 64.0819 0.805054 63.9114C0.499401 63.8295 0.263897 63.507 0 63.3031ZM52.2816 37.2672C51.4332 36.0421 50.5429 34.8204 49.7329 33.5468C49.4857 33.1607 49.2736 33.0153 48.8209 33.0153C33.4236 33.0287 18.0252 33.032 2.6256 33.0254H1.93914V37.2672H52.2816ZM1.94248 48.9447V56.7682H18.7851V48.9447H1.94248ZM1.92912 47.0077H18.7768V39.2193H1.92912V47.0077ZM29.989 48.791H30.6471C36.8303 48.791 43.0102 48.791 49.1867 48.791C49.5212 48.7984 49.8559 48.7856 50.1888 48.7525C51.2879 48.6205 52.3451 48.3698 52.9898 47.3553C53.6947 46.2455 53.7798 44.9887 53.8249 43.7352C53.7683 43.7096 53.7089 43.6906 53.6479 43.6784C48.0894 43.6784 42.5308 43.6633 36.974 43.7118C35.3839 43.7268 33.8289 44.0745 32.446 44.9369C31.063 45.7993 30.2162 47.0762 29.9857 48.7993L29.989 48.791ZM47.7069 22.5762H22.3795C22.3795 23.3735 22.3795 24.1222 22.3795 24.871C22.3795 25.7885 22.498 25.9072 23.4284 25.9072H47.7069V22.5762ZM53.6345 35.753L53.7631 35.6761V12.4313C53.4725 12.7021 53.2621 12.8826 53.0616 13.0865C51.9639 14.263 51.1347 15.6641 50.6315 17.1929C49.4623 20.5991 49.347 24.0938 49.8297 27.6236C50.1538 29.9819 50.872 32.2114 52.285 34.1619C52.6925 34.7234 53.1819 35.2248 53.6345 35.753ZM14.668 24.0437H4.09207C4.34762 25.4175 4.50128 26.7412 4.85203 28.0114C5.3531 29.8281 6.65922 30.8042 8.52654 30.9914C9.12752 31.0499 9.73275 31.0499 10.3337 30.9914C11.7067 30.856 12.8641 30.2994 13.5807 29.056C14.4692 27.5133 14.6212 25.8069 14.668 24.0437ZM62.0675 37.2772V33.0738H55.7323V37.2772H62.0675ZM37.485 31.1284H43.4511V27.8125H37.485V31.1284ZM48.6255 31.1284C48.4084 30.0654 48.2013 29.0326 47.9758 28.0047C47.9563 27.9514 47.9235 27.9039 47.8805 27.8667C47.8375 27.8296 47.7858 27.804 47.7303 27.7924C46.9503 27.7757 46.1719 27.7824 45.417 27.7824V31.1251L48.6255 31.1284ZM55.7223 25.9022C56.4789 25.9022 57.2055 25.9473 57.9204 25.8754C58.1392 25.8537 58.4866 25.5261 58.5016 25.3189C58.5651 24.4147 58.5283 23.5055 58.5283 22.5645H55.7223V25.9022ZM9.68735 11.4904C11.2407 10.1533 11.229 7.61957 9.68735 6.44295C8.14406 7.66135 8.12736 10.1149 9.68735 11.4904ZM10.6711 18.3562C12.5735 19.1617 15.0137 17.2263 14.8834 15.7088C13.4637 14.9466 10.7747 16.3272 10.6711 18.3562ZM8.64011 18.3562C8.37789 16.3873 6.15481 15.0102 4.40608 15.7071C4.60316 17.6107 6.86132 19.0497 8.64011 18.3612V18.3562Z" fill="#C79A53"/>
<path d="M62.1176 58.1403C62.1176 56.5776 62.1176 55.0149 62.1176 53.4522C62.1176 52.7302 62.4901 52.2923 63.0596 52.3057C63.6292 52.3191 63.9833 52.7419 63.985 53.4238C63.9928 56.5693 63.9928 59.7158 63.985 62.8635C63.985 63.5788 63.6509 63.9381 63.0563 63.9448C62.4266 63.9448 62.1193 63.5972 62.1176 62.8284C62.1143 61.2657 62.1176 59.703 62.1176 58.1403Z" fill="#C79A53"/>
<path d="M10.312 53.7999C9.20966 53.7999 8.10564 53.7999 7.00328 53.7999C6.30512 53.7999 5.93266 53.4656 5.93767 52.8623C5.94268 52.2589 6.31682 51.9313 7.01832 51.928C9.26645 51.9213 11.514 51.9213 13.761 51.928C14.4609 51.928 14.8484 52.2623 14.8634 52.8455C14.8784 53.4288 14.4759 53.7965 13.746 53.7999C12.6019 53.8032 11.4578 53.7999 10.312 53.7999Z" fill="#C79A53"/>
<path d="M10.3872 44.0461C9.24307 44.0461 8.09897 44.0461 6.95319 44.0461C6.30179 44.0461 5.94102 43.7018 5.93935 43.1252C5.93768 42.5486 6.29678 42.1859 6.94149 42.1826C9.22971 42.1725 11.5185 42.1725 13.8078 42.1826C14.4859 42.1826 14.8751 42.5603 14.8601 43.1469C14.845 43.7051 14.4676 44.0428 13.8178 44.0461C12.6754 44.0528 11.5313 44.0478 10.3872 44.0461Z" fill="#C79A53"/>
</svg>
