<svg width="49" height="49" viewBox="0 0 49 49" fill="none" xmlns="http://www.w3.org/2000/svg">
<rect x="0.60083" y="0.0644531" width="48" height="48" rx="24" fill="#343538"/>
<path d="M24.6008 15.7312H21.8508C20.2675 15.7312 19.0175 16.9812 19.0175 18.4812C19.0175 19.9812 20.2675 21.2312 21.7675 21.2312H24.6008V15.7312Z" stroke="white" stroke-miterlimit="10"/>
<path d="M24.6008 21.3145H21.8508C20.3508 21.3145 19.1008 22.5645 19.1008 24.0645C19.1008 25.5645 20.3508 26.8145 21.8508 26.8145H24.6008V21.3145Z" stroke="white" stroke-miterlimit="10"/>
<path d="M24.6008 26.8145H21.8508C20.3508 26.8145 19.1008 28.0645 19.1008 29.5645C19.1008 31.0645 20.3508 32.3145 21.8508 32.3145C23.3508 32.3145 24.6008 31.0645 24.6008 29.5645V26.8145Z" stroke="white" stroke-miterlimit="10"/>
<path d="M24.6008 15.7312H27.3508C28.8508 15.7312 30.1008 16.9812 30.1008 18.4812C30.1008 19.9812 28.8508 21.2312 27.3508 21.2312H24.6008V15.7312Z" stroke="white" stroke-miterlimit="10"/>
<path d="M27.3508 21.3145C28.8508 21.3145 30.1008 22.5645 30.1008 24.0645C30.1008 25.5645 28.8508 26.8145 27.3508 26.8145C25.8508 26.8145 24.6008 25.5645 24.6008 24.0645C24.6008 22.5645 25.8508 21.3145 27.3508 21.3145Z" stroke="white" stroke-miterlimit="10"/>
</svg>
