<svg width="49" height="49" viewBox="0 0 49 49" fill="none" xmlns="http://www.w3.org/2000/svg">
<rect x="0.60083" y="0.0644531" width="48" height="48" rx="24" fill="#343538"/>
<path d="M30.0175 18.0562C27.8508 21.8478 23.6758 24.0228 19.3258 23.6312L16.6842 23.3895" stroke="white" stroke-miterlimit="10" stroke-linecap="round" stroke-linejoin="round"/>
<path d="M19.1842 30.2062C21.3508 26.4145 25.5258 24.2395 29.8758 24.6312L32.5175 24.8729" stroke="white" stroke-miterlimit="10" stroke-linecap="round" stroke-linejoin="round"/>
<path d="M24.6008 32.3979C29.2032 32.3979 32.9342 28.6669 32.9342 24.0645C32.9342 19.4622 29.2032 15.7312 24.6008 15.7312C19.9984 15.7312 16.2675 19.4622 16.2675 24.0645C16.2675 28.6669 19.9984 32.3979 24.6008 32.3979Z" stroke="white" stroke-miterlimit="10" stroke-linecap="round" stroke-linejoin="round"/>
<path d="M20.9592 16.5645L23.6092 19.8561C25.3842 22.0561 26.6425 24.6145 27.3092 27.3561L28.3175 31.5145" stroke="white" stroke-miterlimit="10" stroke-linecap="round" stroke-linejoin="round"/>
</svg>
