<svg width="49" height="49" viewBox="0 0 49 49" fill="none" xmlns="http://www.w3.org/2000/svg">
<rect x="0.60083" y="0.0644531" width="48" height="48" rx="24" fill="#343538"/>
<path d="M20.3508 31.2312C21.6008 31.9812 23.1008 32.3979 24.6008 32.3979C29.1842 32.3979 32.9342 28.6479 32.9342 24.0645C32.9342 19.4812 29.1842 15.7312 24.6008 15.7312C20.0175 15.7312 16.2675 19.4812 16.2675 24.0645C16.2675 25.5645 16.6842 26.9812 17.3508 28.2312L16.7079 30.7039C16.5132 31.4528 17.2064 32.1296 17.9505 31.917L20.3508 31.2312Z" stroke="white" stroke-miterlimit="10" stroke-linecap="round" stroke-linejoin="round"/>
<path d="M28.3508 26.4382C28.3508 26.5732 28.3208 26.712 28.2569 26.847C28.1931 26.982 28.1105 27.1095 28.0016 27.2295C27.8175 27.432 27.6147 27.5782 27.3856 27.672C27.1603 27.7657 26.9162 27.8145 26.6533 27.8145C26.2702 27.8145 25.8608 27.7245 25.4289 27.5407C24.997 27.357 24.5652 27.1095 24.137 26.7982C23.7051 26.4832 23.2957 26.1345 22.9052 25.7482C22.5183 25.3582 22.1691 24.9495 21.8573 24.522C21.5494 24.0945 21.3015 23.667 21.1212 23.2432C20.941 22.8157 20.8508 22.407 20.8508 22.017C20.8508 21.762 20.8959 21.5182 20.986 21.2932C21.0762 21.0645 21.2189 20.8545 21.4179 20.667C21.6583 20.4307 21.9212 20.3145 22.1991 20.3145C22.3043 20.3145 22.4094 20.337 22.5033 20.382C22.601 20.427 22.6873 20.4945 22.7549 20.592L23.6262 21.8182C23.6938 21.912 23.7427 21.9982 23.7765 22.0807C23.8103 22.1595 23.829 22.2382 23.829 22.3095C23.829 22.3995 23.8028 22.4895 23.7502 22.5757C23.7014 22.662 23.63 22.752 23.5399 22.842L23.2544 23.1382C23.2131 23.1795 23.1943 23.2282 23.1943 23.2882C23.1943 23.3182 23.1981 23.3445 23.2056 23.3745C23.2169 23.4045 23.2281 23.427 23.2357 23.4495C23.3033 23.5732 23.4197 23.7345 23.5849 23.9295C23.7539 24.1245 23.9342 24.3232 24.1295 24.522C24.3323 24.7207 24.5276 24.9045 24.7266 25.0732C24.9219 25.2382 25.0834 25.3507 25.2111 25.4182C25.2299 25.4257 25.2524 25.437 25.2787 25.4482C25.3088 25.4595 25.3388 25.4632 25.3726 25.4632C25.4365 25.4632 25.4853 25.4407 25.5266 25.3995L25.812 25.1182C25.9059 25.0245 25.996 24.9532 26.0824 24.9082C26.1688 24.8557 26.2552 24.8295 26.3491 24.8295C26.4204 24.8295 26.4955 24.8445 26.5782 24.8782C26.6608 24.912 26.7472 24.9607 26.8411 25.0245L28.0842 25.9057C28.1818 25.9732 28.2494 26.052 28.2907 26.1457C28.3283 26.2395 28.3508 26.3332 28.3508 26.4382Z" stroke="white" stroke-miterlimit="10"/>
</svg>
