<svg width="174" height="99" viewBox="0 0 174 99" fill="none" xmlns="http://www.w3.org/2000/svg">
<g clip-path="url(#clip0_0_1446)">
<path d="M4.31183 75.607V87.6677H0.327515V68.3057H4.85763L10.6977 80.096L16.5377 68.3057H21.0678V87.6677H17.0835V75.607L10.6977 88.2626L4.31183 75.607Z" fill="white"/>
<path d="M34.6035 67.927C36.0226 67.927 37.3325 68.1974 38.5879 68.7923C39.8432 69.3332 40.9894 70.1444 41.9172 71.2261C43.6092 73.065 44.4279 75.2824 44.4279 77.9325C44.4279 79.4469 44.155 80.9071 43.5546 82.2592C42.9542 83.6113 42.1355 84.7471 40.9894 85.7206C39.1336 87.3431 36.9505 88.1544 34.4398 88.1544C32.9661 88.1544 31.4925 87.8299 30.128 87.2349C28.7635 86.64 27.6173 85.7747 26.6349 84.6389C25.0521 82.8542 24.2334 80.6367 24.2334 78.0948C24.2334 76.6886 24.5063 75.3365 25.0521 74.0926C25.5979 72.7945 26.362 71.7129 27.399 70.7394C29.3093 68.8464 31.7108 67.927 34.6035 67.927ZM34.2761 71.6047C32.4749 71.6047 31.0013 72.3078 29.8005 73.714C28.8181 74.9038 28.3269 76.31 28.3269 77.9866C28.3269 79.8255 28.9272 81.3398 30.0734 82.5297C31.2742 83.7195 32.6387 84.3144 34.3306 84.3144C36.0772 84.3144 37.6054 83.6654 38.8062 82.3674C39.8432 81.2316 40.389 79.7173 40.389 77.9325C40.389 75.9855 39.734 74.4171 38.4787 73.2272C37.2779 72.1455 35.9134 71.6047 34.2761 71.6047Z" fill="white"/>
<path d="M56.9812 67.927C58.4003 67.927 59.7102 68.1974 60.9655 68.7923C62.2209 69.3332 63.367 70.1444 64.2949 71.2261C65.9869 73.065 66.8056 75.2824 66.8056 77.9325C66.8056 79.4469 66.5327 80.9071 65.9323 82.2592C65.3319 83.6113 64.5132 84.7471 63.367 85.7206C61.5113 87.3431 59.3281 88.1544 56.8175 88.1544C55.3438 88.1544 53.8702 87.8299 52.5057 87.2349C51.1412 86.64 49.995 85.7747 49.0126 84.6389C47.4298 82.8542 46.6111 80.6367 46.6111 78.0948C46.6111 76.6886 46.884 75.3365 47.4298 74.0926C47.9756 72.7945 48.7397 71.7129 49.7767 70.7394C51.7416 68.8464 54.0885 67.927 56.9812 67.927ZM56.6537 71.6047C54.8526 71.6047 53.379 72.3078 52.1782 73.714C51.1958 74.9038 50.7046 76.31 50.7046 77.9866C50.7046 79.8255 51.3049 81.3398 52.4511 82.5297C53.6519 83.7195 55.0164 84.3144 56.7083 84.3144C58.4549 84.3144 59.9831 83.6654 61.1839 82.3674C62.2209 81.2316 62.7667 79.7173 62.7667 77.9325C62.7667 75.9855 62.1117 74.4171 60.8564 73.2272C59.7102 72.1455 58.2911 71.6047 56.6537 71.6047Z" fill="white"/>
<path d="M74.0101 81.0154V87.6677H70.0258V68.3057H76.2478C78.5948 68.3057 80.3959 68.8465 81.6512 69.9282C82.9066 71.0099 83.5069 72.5242 83.5069 74.5253C83.5069 75.5529 83.2886 76.5264 82.9066 77.4458C82.5245 78.3112 81.9241 79.0684 81.2146 79.6633C80.0138 80.5827 78.4856 81.0154 76.5207 81.0154H74.0101ZM74.0101 77.7703H75.702C76.4662 77.7703 77.1211 77.6622 77.6123 77.4458C78.7585 76.9591 79.3589 76.0397 79.3589 74.7417C79.3589 73.4977 78.8677 72.6324 77.8307 72.0915C77.2849 71.8211 76.6299 71.6589 75.8112 71.6589H73.9555V77.7703H74.0101Z" fill="white"/>
<path d="M96.0603 84.3145H88.5283L87.3821 87.6677H83.1249L89.8928 68.3057H94.9141L101.573 87.6677H97.1519L96.0603 84.3145ZM95.0232 81.0695L92.2943 73.065L89.5653 81.0695H95.0232Z" fill="white"/>
<path d="M122.804 82.0429H126.734C126.734 82.5297 126.789 82.9082 126.898 83.1787C127.116 83.6113 127.444 83.9358 127.935 84.2063C128.371 84.4226 128.863 84.5308 129.408 84.5308C130.173 84.5308 130.828 84.3144 131.319 83.8817C131.755 83.5032 131.974 83.0164 131.974 82.4756C131.974 81.8266 131.701 81.3398 131.155 80.9612C130.773 80.6908 129.954 80.3122 128.754 79.8795C126.843 79.2305 125.424 78.4734 124.605 77.7162C123.514 76.7427 122.968 75.4447 122.968 73.8221C122.968 71.9833 123.623 70.523 124.878 69.4414C126.079 68.4138 127.607 67.927 129.408 67.927C130.664 67.927 131.755 68.1974 132.738 68.6842C133.72 69.1709 134.484 69.874 135.03 70.7934C135.576 71.6588 135.849 72.6864 135.958 73.8762H131.865C131.755 72.2537 130.882 71.4965 129.299 71.4965C128.481 71.4965 127.88 71.7129 127.444 72.1455C127.062 72.5241 126.898 72.9568 126.898 73.4976C126.898 74.3089 127.28 74.9038 128.099 75.3365C128.481 75.5528 129.245 75.8773 130.391 76.2559C131.81 76.7427 132.847 77.2294 133.502 77.6621C135.194 78.7438 136.013 80.2581 136.013 82.1511C136.013 84.2063 135.194 85.7747 133.611 86.8564C132.41 87.6676 130.991 88.0462 129.299 88.0462C127.935 88.0462 126.789 87.7758 125.752 87.289C124.769 86.8023 123.95 86.0992 123.405 85.1798C123.023 84.3144 122.804 83.2327 122.804 82.0429Z" fill="white"/>
<path d="M115.818 68.3057V80.4205L108.504 69.6578V76.6887L115.927 87.6677H119.857V68.3057H115.818Z" fill="white"/>
<path d="M104.138 86.9646V55.001L100.099 57.2725V53.9734L103.865 51.81L104.848 51.2151L116.528 44.5628V33.0429L112.489 30.7714V27.4182L115.709 29.2571L124.223 34.1246L137.759 41.8586L145.073 46.0231L148.839 48.1864V51.5396L144.8 49.214V64.0871H129.136V43.8597L132.028 45.5363V61.1666H141.853V47.5374L125.26 38.0187L119.475 34.7195V60.193H116.528V47.916L107.085 53.3244V86.9646H104.138Z" fill="white"/>
<path d="M79.1951 97.3487V94.4281H154.57V7.35308L132.028 20.225V34.9359L129.081 33.2593V21.9016L125.042 24.2273V20.8741L158.336 1.83653L161.556 0.0517578V3.40496L157.517 5.73057V55.001L170.179 62.2482L173.945 64.4116V67.7648L169.907 65.4392V97.4028H79.1951V97.3487ZM157.517 94.4822H167.014V63.7626L157.517 58.3542V94.4822Z" fill="#C79A53"/>
<path d="M1.6374 94.6444C1.74656 94.6444 1.80114 94.6444 1.85572 94.6984C1.9103 94.7525 1.96488 94.8066 2.01946 94.9148V94.9689H2.729V94.9148C2.67442 94.6444 2.56526 94.428 2.34694 94.3199C2.12862 94.1576 1.9103 94.1035 1.58282 94.1035C1.09161 94.1035 0.70955 94.2658 0.382072 94.6444C0.109174 94.9689 -0.0545654 95.5097 -0.0545654 96.1046C-0.0545654 96.7536 0.109174 97.2404 0.382072 97.619C0.65497 97.9976 1.03703 98.1598 1.52825 98.1598C1.69198 98.1598 1.85572 98.1598 2.01946 98.1057C2.1832 98.0516 2.40152 97.9976 2.61984 97.9435H2.67442V95.9965H1.20077V96.6455H2.01946V97.5108C1.9103 97.5649 1.85572 97.5649 1.80114 97.5649C1.74656 97.4026 1.6374 97.4026 1.58282 97.4026C1.30993 97.4026 1.09161 97.2945 0.927869 97.0781C0.76413 96.8618 0.70955 96.4832 0.70955 95.9965C0.70955 95.5097 0.76413 95.1852 0.927869 94.9689C1.09161 94.7525 1.30993 94.6444 1.6374 94.6444Z" fill="white"/>
<path d="M6.93161 95.9424C7.09535 95.7801 7.14993 95.5097 7.14993 95.2393C7.14993 94.8607 7.04077 94.5903 6.82245 94.3739C6.60414 94.2117 6.22208 94.1035 5.78544 94.1035H4.69385V97.9976H5.3488V96.4291H5.67628L6.54956 97.9976H7.36825L6.38582 96.321C6.60414 96.2128 6.76787 96.1046 6.93161 95.9424ZM5.29422 94.6984H5.6217C5.8946 94.6984 6.05834 94.7525 6.22208 94.8066C6.33124 94.9148 6.38582 95.0229 6.38582 95.2393C6.38582 95.4015 6.33124 95.5638 6.22208 95.6179C6.11292 95.726 5.8946 95.726 5.67628 95.726H5.29422V94.6984Z" fill="white"/>
<path d="M10.3156 93.9954C9.87892 93.9954 9.55144 94.2117 9.27854 94.5903C9.00564 94.9689 8.89648 95.4556 8.89648 96.0506C8.89648 96.6455 9.00564 97.1322 9.27854 97.5108C9.55144 97.8894 9.87892 98.1057 10.3156 98.1057C10.7522 98.1057 11.0797 97.8894 11.3526 97.5108C11.6255 97.1322 11.7346 96.6455 11.7346 96.0506C11.7346 95.4556 11.6255 94.9689 11.3526 94.5903C11.0797 94.2117 10.6976 93.9954 10.3156 93.9954ZM10.3156 97.4026C10.0972 97.4026 9.9335 97.2945 9.82434 97.0241C9.71518 96.7536 9.60602 96.4291 9.60602 95.9965C9.60602 95.5638 9.6606 95.1852 9.82434 94.9689C9.9335 94.7525 10.0972 94.5903 10.3156 94.5903C10.5339 94.5903 10.6976 94.6985 10.8068 94.9689C10.9159 95.2393 11.0251 95.5638 11.0251 95.9965C11.0251 96.4291 10.9705 96.7536 10.8068 97.0241C10.6976 97.2945 10.5339 97.4026 10.3156 97.4026Z" fill="white"/>
<path d="M15.4461 96.5373C15.4461 96.8618 15.3915 97.0781 15.2823 97.1863C15.1732 97.2945 15.0094 97.3486 14.7911 97.3486C14.5182 97.3486 14.3545 97.2945 14.2453 97.1863C14.1362 97.0781 14.0816 96.8618 14.0816 96.4832V93.9954H13.4266V96.321C13.4266 96.6996 13.4266 96.9159 13.4812 97.0781C13.5358 97.2404 13.5904 97.3486 13.645 97.4567C13.7541 97.619 13.9179 97.7272 14.0816 97.8353C14.2453 97.9435 14.4636 97.9435 14.7365 97.9435C15.2278 97.9435 15.5552 97.8353 15.7736 97.619C15.9919 97.4026 16.101 97.0241 16.101 96.5914V93.9954H15.4461V96.5373Z" fill="white"/>
<path d="M19.3758 94.1035H18.0113V97.9976H18.6662V96.4291H19.4304C19.8124 96.4291 20.1399 96.321 20.3582 96.1046C20.5765 95.8883 20.6857 95.6179 20.6857 95.2393C20.6857 94.8607 20.5765 94.5903 20.3036 94.3739C20.0853 94.2117 19.7578 94.1035 19.3758 94.1035ZM18.6662 94.6984H19.2666C19.4849 94.6984 19.7033 94.7525 19.8124 94.8607C19.9216 94.9689 19.9762 95.077 19.9762 95.2393C19.9762 95.4556 19.9216 95.5638 19.8124 95.6179C19.7033 95.726 19.4849 95.726 19.212 95.726H18.6662V94.6984Z" fill="white"/>
<path d="M27.2899 93.9954C26.8532 93.9954 26.5257 94.2117 26.2528 94.5903C25.9799 94.9689 25.8708 95.4556 25.8708 96.0506C25.8708 96.6455 25.9799 97.1322 26.2528 97.5108C26.5257 97.8894 26.8532 98.1057 27.2899 98.1057C27.7265 98.1057 28.054 97.8894 28.3269 97.5108C28.5998 97.1322 28.7089 96.6455 28.7089 96.0506C28.7089 95.4556 28.5998 94.9689 28.3269 94.5903C28.054 94.2117 27.7265 93.9954 27.2899 93.9954ZM27.2899 97.4026C27.0715 97.4026 26.9078 97.2945 26.7986 97.0241C26.6895 96.7536 26.5803 96.4291 26.5803 95.9965C26.5803 95.5638 26.6349 95.1852 26.7986 94.9689C26.9078 94.7525 27.0715 94.5903 27.2899 94.5903C27.5082 94.5903 27.6719 94.6985 27.7811 94.9689C27.8902 95.2393 27.9994 95.5638 27.9994 95.9965C27.9994 96.4291 27.9448 96.7536 27.7811 97.0241C27.6719 97.2945 27.5082 97.4026 27.2899 97.4026Z" fill="white"/>
<path d="M30.8921 97.9976H31.547V96.2669H32.7478V95.6179H31.547V94.6984H32.9661V94.1035H30.8921V97.9976Z" fill="white"/>
<path d="M40.389 97.0781C40.389 97.1863 40.3344 97.2945 40.2798 97.3485C40.2253 97.4026 40.1161 97.4567 40.0069 97.4567C39.7886 97.4567 39.6795 97.3486 39.5703 97.1322C39.4611 96.9159 39.4066 96.5373 39.4066 96.0505C39.4066 95.6179 39.4611 95.2393 39.5703 95.0229C39.6795 94.8066 39.7886 94.6984 40.0069 94.6984C40.1161 94.6984 40.2253 94.7525 40.2798 94.8066C40.3344 94.8607 40.389 94.9689 40.389 95.077V95.1311H41.0985V95.077C41.0439 94.8066 40.9348 94.5362 40.771 94.3739C40.6073 94.2117 40.3344 94.1035 40.0615 94.1035C39.6249 94.1035 39.2974 94.2658 39.0791 94.6444C38.8608 94.9689 38.697 95.4556 38.697 96.0505C38.697 96.6995 38.8062 97.1863 39.0245 97.5649C39.2428 97.9435 39.6249 98.1057 40.0615 98.1057C40.3344 98.1057 40.6073 97.9976 40.771 97.8353C40.9348 97.6731 41.0985 97.4026 41.0985 97.1322V97.0781H40.389Z" fill="white"/>
<path d="M44.3187 93.9954C43.8821 93.9954 43.5546 94.2117 43.2817 94.5903C43.0088 94.9689 42.8997 95.4556 42.8997 96.0506C42.8997 96.6455 43.0088 97.1322 43.2817 97.5108C43.5546 97.8894 43.8821 98.1057 44.3187 98.1057C44.7554 98.1057 45.0828 97.8894 45.3557 97.5108C45.6286 97.1322 45.7378 96.6455 45.7378 96.0506C45.7378 95.4556 45.6286 94.9689 45.3557 94.5903C45.0828 94.2117 44.7554 93.9954 44.3187 93.9954ZM44.3187 97.4026C44.1004 97.4026 43.9367 97.2945 43.8275 97.0241C43.7184 96.7536 43.6092 96.4291 43.6092 95.9965C43.6092 95.5638 43.6638 95.1852 43.8275 94.9689C43.9367 94.7525 44.1004 94.5903 44.3187 94.5903C44.537 94.5903 44.7008 94.6985 44.8099 94.9689C44.9191 95.2393 45.0283 95.5638 45.0283 95.9965C45.0283 96.4291 44.9737 96.7536 44.8099 97.0241C44.7008 97.2945 44.537 97.4026 44.3187 97.4026Z" fill="white"/>
<path d="M48.7943 95.5639L48.3576 94.0496H47.3752V97.9977H48.0301V95.1312L48.5214 96.7538H49.0672L49.5038 95.1312V97.9977H50.2133V94.0496H49.1763L48.7943 95.5639Z" fill="white"/>
<path d="M53.379 94.1035H52.0145V97.9976H52.6694V96.4291H53.4335C53.8156 96.4291 54.1431 96.321 54.3614 96.1046C54.5797 95.8883 54.6889 95.6179 54.6889 95.2393C54.6889 94.8607 54.5797 94.5903 54.3068 94.3739C54.0885 94.2117 53.761 94.1035 53.379 94.1035ZM52.6694 94.6984H53.2698C53.4881 94.6984 53.7064 94.7525 53.8156 94.8607C53.9248 94.9689 53.9793 95.077 53.9793 95.2393C53.9793 95.4556 53.9248 95.5638 53.8156 95.6179C53.7064 95.726 53.4881 95.726 53.2152 95.726H52.6694V94.6984Z" fill="white"/>
<path d="M58.1274 94.0496H57.2541L56.2171 97.9977H56.8721L57.145 96.916H58.1274L58.4003 97.9977H59.1098L58.1274 94.0496ZM58.0182 96.267H57.3087L57.6362 94.9149L58.0182 96.267Z" fill="white"/>
<path d="M62.8212 96.6456L61.6204 94.0496H60.8563V97.9977H61.5113V95.3476L62.7666 97.9977H63.4761V94.0496H62.8212V96.6456Z" fill="white"/>
<path d="M66.9693 94.6984H67.5697V94.1035H65.714V94.6984H66.3143V97.2945H65.6048V97.9435H67.6788V97.2945H66.9693V94.6984Z" fill="white"/>
<path d="M70.6261 96.2128H72.1543V95.6179H70.6261V94.6984H72.3181V94.1035H69.9166V97.9435H72.3727V97.2945H70.6261V96.2128Z" fill="white"/>
<path d="M76.6298 96.267C76.4661 96.1047 76.2478 95.8884 75.9203 95.7262L75.702 95.618C75.4837 95.5098 75.2654 95.4017 75.2108 95.2935C75.1562 95.1853 75.1016 95.1312 75.1016 95.0231C75.1016 94.9149 75.1562 94.8067 75.2654 94.7527C75.3745 94.6445 75.4837 94.6445 75.6474 94.6445C75.8112 94.6445 75.9203 94.6986 76.0295 94.7527C76.1386 94.8067 76.1386 94.9149 76.1932 95.0772V95.1312H76.9027V95.0772C76.9027 94.7526 76.739 94.4822 76.5753 94.32C76.3569 94.1577 76.0841 94.0496 75.7566 94.0496C75.3745 94.0496 75.047 94.1577 74.8287 94.32C74.6104 94.5363 74.4467 94.7526 74.4467 95.0772C74.4467 95.2935 74.5012 95.5098 74.665 95.6721C74.7741 95.8343 74.9925 95.9966 75.2654 96.1047L75.5382 96.2129C75.8657 96.3752 76.084 96.4833 76.1386 96.5915C76.1932 96.6997 76.2478 96.7538 76.2478 96.916C76.2478 97.0783 76.1932 97.1864 76.084 97.2405C75.9749 97.3487 75.8112 97.4028 75.6474 97.4028C75.4837 97.4028 75.3745 97.3487 75.3199 97.2946C75.2108 97.1864 75.2108 97.0783 75.2108 96.916V96.8078H74.5012V96.8619C74.5012 97.2405 74.6104 97.5109 74.8287 97.7273C75.047 97.9436 75.3199 98.0518 75.702 98.0518C76.084 98.0518 76.4115 97.9436 76.6844 97.7813C76.9027 97.565 77.0665 97.2946 77.0665 96.9701C76.8482 96.6456 76.739 96.4292 76.6298 96.267Z" fill="white"/>
</g>
<defs>
<clipPath id="clip0_0_1446">
<rect width="174" height="98" fill="white" transform="translate(0 0.0517578)"/>
</clipPath>
</defs>
</svg>
