<svg width="19" height="33" viewBox="0 0 19 33" fill="none" xmlns="http://www.w3.org/2000/svg">
<path d="M4.06112 16.4345C5.55213 17.7508 7.43271 18.5206 9.40307 18.6213C11.3734 18.722 13.3202 18.1477 14.933 16.99C16.5458 15.8324 17.7318 14.1579 18.3019 12.2336C18.8721 10.3094 18.7936 8.24598 18.0789 6.37243C17.3643 4.49887 16.0547 2.92299 14.3588 1.89599C12.6629 0.868982 10.6783 0.44997 8.72153 0.70574C6.76473 0.961511 4.94828 1.87734 3.56174 3.30725C2.17519 4.73715 1.29837 6.59882 1.07104 8.5955C0.284872 12.668 0.293705 17.5213 2.0957 21.8705C3.99929 26.4605 7.83958 30.3305 14.3961 32.0788C14.6073 32.1373 14.8277 32.1526 15.0447 32.1238C15.2617 32.095 15.4709 32.0227 15.6603 31.911C15.8497 31.7993 16.0155 31.6506 16.1481 31.4732C16.2807 31.2959 16.3776 31.0936 16.433 30.8779C16.4884 30.6622 16.5014 30.4375 16.4711 30.2167C16.4408 29.9959 16.3678 29.7835 16.2565 29.5915C16.1451 29.3996 15.9975 29.2321 15.8222 29.0987C15.647 28.9652 15.4475 28.8685 15.2353 28.814C9.646 27.3223 6.64045 24.1565 5.14762 20.5565C4.6092 19.2371 4.24389 17.8512 4.06112 16.4345Z" fill="#E8E8E8"/>
</svg>
