<svg width="49" height="49" viewBox="0 0 49 49" fill="none" xmlns="http://www.w3.org/2000/svg">
<rect x="0.60083" y="0.0644531" width="48" height="48" rx="24" fill="#343538"/>
<path d="M28.7675 30.731H20.4342C17.9342 30.731 16.2675 29.0644 16.2675 26.5644V21.5644C16.2675 19.0644 17.9342 17.3977 20.4342 17.3977H28.7675C31.2675 17.3977 32.9342 19.0644 32.9342 21.5644V26.5644C32.9342 29.0644 31.2675 30.731 28.7675 30.731Z" stroke="white" stroke-miterlimit="10" stroke-linecap="round" stroke-linejoin="round"/>
<path d="M24.1008 21.9812L26.1842 23.2312C26.9342 23.7312 26.9342 24.4812 26.1842 24.9812L24.1008 26.2312C23.2675 26.7312 22.6008 26.3145 22.6008 25.3979V22.8979C22.6008 21.8145 23.2675 21.4812 24.1008 21.9812Z" stroke="white" stroke-miterlimit="10" stroke-linecap="round" stroke-linejoin="round"/>
</svg>
